<?xml version="1.0" encoding="UTF-8" standalone="no"?>
<!-- Created with Inkscape (http://www.inkscape.org/) -->

<svg
   width="200"
   height="200"
   viewBox="0 0 52.916668 52.916666"
   version="1.1"
   id="svg8"
   inkscape:version="1.2 (dc2aeda, 2022-05-15)"
   sodipodi:docname="mind_0.svg"
   xml:space="preserve"
   xmlns:inkscape="http://www.inkscape.org/namespaces/inkscape"
   xmlns:sodipodi="http://sodipodi.sourceforge.net/DTD/sodipodi-0.dtd"
   xmlns="http://www.w3.org/2000/svg"
   xmlns:svg="http://www.w3.org/2000/svg"
   xmlns:rdf="http://www.w3.org/1999/02/22-rdf-syntax-ns#"
   xmlns:cc="http://creativecommons.org/ns#"
   xmlns:dc="http://purl.org/dc/elements/1.1/"><defs
     id="defs2"><inkscape:path-effect
       effect="envelope"
       id="path-effect4658"
       is_visible="true"
       yy="true"
       xx="true"
       bendpath1="m -199.08406,108.42369 h 7.0057"
       bendpath2="m -192.07836,108.42369 v 6.75242"
       bendpath3="m -199.08406,115.17611 h 7.0057"
       bendpath4="m -199.08406,108.42369 v 6.75242" /><inkscape:path-effect
       effect="bend_path"
       id="path-effect4656"
       is_visible="true"
       bendpath="m -192.00142,114.60623 c 2.12577,-0.53066 4.48261,0.85111 7.0057,0"
       prop_scale="1"
       scale_y_rel="false"
       vertical="false"
       bendpath-nodetypes="cc" /><inkscape:path-effect
       effect="bounding_box"
       id="path-effect4654"
       is_visible="true"
       linkedpath=""
       visualbounds="false" /></defs><sodipodi:namedview
     id="base"
     pagecolor="#ffffff"
     bordercolor="#666666"
     borderopacity="1.0"
     inkscape:pageopacity="0.0"
     inkscape:pageshadow="2"
     inkscape:zoom="2"
     inkscape:cx="113.75"
     inkscape:cy="95"
     inkscape:document-units="px"
     inkscape:current-layer="layer1"
     showgrid="false"
     fit-margin-top="0"
     fit-margin-left="0"
     fit-margin-right="0"
     fit-margin-bottom="0"
     inkscape:window-width="1280"
     inkscape:window-height="646"
     inkscape:window-x="0"
     inkscape:window-y="25"
     inkscape:window-maximized="0"
     showguides="false"
     inkscape:object-nodes="true"
     units="px"
     inkscape:snap-page="true"
     inkscape:showpageshadow="2"
     inkscape:pagecheckerboard="0"
     inkscape:deskcolor="#d1d1d1" /><metadata
     id="metadata5"><rdf:RDF><cc:Work
         rdf:about=""><dc:format>image/svg+xml</dc:format><dc:type
           rdf:resource="http://purl.org/dc/dcmitype/StillImage" /><dc:title /></cc:Work></rdf:RDF></metadata><g
     inkscape:label="Layer 1"
     inkscape:groupmode="layer"
     id="layer1"
     transform="translate(98.048812,-95.14345)"><g
       style="stroke-width:0.5"
       id="g5375"
       transform="matrix(2,0,0,2,-98.048812,95.143449)"><rect
         ry="1.984375"
         rx="1.984375"
         style="opacity:1;fill:#222222;fill-opacity:1;fill-rule:nonzero;stroke:none;stroke-width:0.25;stroke-linecap:butt;stroke-linejoin:round;stroke-miterlimit:4;stroke-dasharray:none;stroke-dashoffset:0;stroke-opacity:0.90944878;paint-order:normal"
         id="rect5363"
         width="26.458334"
         height="26.458334"
         x="0"
         y="-1.110223e-16" /><rect
         ry="1.3229166"
         rx="1.3229166"
         y="1.322917"
         x="1.322917"
         height="23.8125"
         width="23.8125"
         id="rect5365"
         style="opacity:1;fill:#f8f8f8;fill-opacity:1;fill-rule:nonzero;stroke:none;stroke-width:0.25;stroke-linecap:butt;stroke-linejoin:round;stroke-miterlimit:4;stroke-dasharray:none;stroke-dashoffset:0;stroke-opacity:0.90944878;paint-order:normal" /><path
         inkscape:connector-curvature="0"
         id="path5369"
         d="m 0.72760492,18.520836 v 4.167188 c 0,1.539081 1.23904398,2.778124 2.77812498,2.778124 H 22.952604 c 1.539081,0 2.778125,-1.239043 2.778125,-2.778124 v -4.167188 z"
         style="opacity:1;fill:#222222;fill-opacity:1;fill-rule:nonzero;stroke:none;stroke-width:0.24999997;stroke-linecap:butt;stroke-linejoin:round;stroke-miterlimit:4;stroke-dasharray:none;stroke-dashoffset:0;stroke-opacity:0.90944878;paint-order:normal" /></g><g
       aria-label="ZOOMER"
       id="text1642"
       style="font-weight:600;font-size:8.1139px;font-family:Montserrat;-inkscape-font-specification:'Montserrat Semi-Bold';fill:#f8f8f8;stroke-width:1.632"><path
         d="m -90.313273,141.97029 v -0.70591 l 3.667483,-4.47887 0.121709,0.39758 h -3.732394 v -0.89253 h 4.68172 v 0.70591 l -3.667483,4.47887 -0.129822,-0.39758 h 3.902786 v 0.89253 z"
         style="fill:#ffffff"
         id="path1694" /><path
         d="m -81.907298,142.05143 q -0.66534,0 -1.225199,-0.21908 -0.559859,-0.21907 -0.973668,-0.60854 -0.413809,-0.39758 -0.640998,-0.92498 -0.227189,-0.53552 -0.227189,-1.1684 0,-0.63289 0.227189,-1.16029 0.227189,-0.53552 0.640998,-0.92499 0.413809,-0.39758 0.973668,-0.61665 0.559859,-0.21908 1.217085,-0.21908 0.66534,0 1.217085,0.21908 0.559859,0.21907 0.973668,0.61665 0.413809,0.38947 0.640998,0.92499 0.22719,0.5274 0.22719,1.16029 0,0.63288 -0.22719,1.1684 -0.227189,0.53552 -0.640998,0.92498 -0.413809,0.38947 -0.973668,0.60854 -0.551745,0.21908 -1.208971,0.21908 z m -0.0081,-0.92498 q 0.430037,0 0.795163,-0.14605 0.365125,-0.14605 0.632884,-0.41381 0.267758,-0.27588 0.413809,-0.63289 0.154164,-0.36512 0.154164,-0.80327 0,-0.43815 -0.154164,-0.79517 -0.146051,-0.36512 -0.413809,-0.63288 -0.267759,-0.27587 -0.632884,-0.42192 -0.365126,-0.14605 -0.795163,-0.14605 -0.430036,0 -0.795162,0.14605 -0.357012,0.14605 -0.632884,0.42192 -0.267759,0.26776 -0.421923,0.63288 -0.14605,0.35702 -0.14605,0.79517 0,0.43003 0.14605,0.79516 0.154164,0.36512 0.421923,0.641 0.267759,0.26776 0.632884,0.41381 0.365126,0.14605 0.795162,0.14605 z"
         style="fill:#ffffff"
         id="path1696" /><path
         d="m -75.075402,142.05143 q -0.66534,0 -1.225199,-0.21908 -0.559859,-0.21907 -0.973668,-0.60854 -0.413809,-0.39758 -0.640998,-0.92498 -0.227189,-0.53552 -0.227189,-1.1684 0,-0.63289 0.227189,-1.16029 0.227189,-0.53552 0.640998,-0.92499 0.413809,-0.39758 0.973668,-0.61665 0.559859,-0.21908 1.217085,-0.21908 0.66534,0 1.217085,0.21908 0.559859,0.21907 0.973668,0.61665 0.413809,0.38947 0.640998,0.92499 0.227189,0.5274 0.227189,1.16029 0,0.63288 -0.227189,1.1684 -0.227189,0.53552 -0.640998,0.92498 -0.413809,0.38947 -0.973668,0.60854 -0.551745,0.21908 -1.208971,0.21908 z m -0.0081,-0.92498 q 0.430037,0 0.795162,-0.14605 0.365126,-0.14605 0.632885,-0.41381 0.267758,-0.27588 0.413808,-0.63289 0.154165,-0.36512 0.154165,-0.80327 0,-0.43815 -0.154165,-0.79517 -0.14605,-0.36512 -0.413808,-0.63288 -0.267759,-0.27587 -0.632885,-0.42192 -0.365125,-0.14605 -0.795162,-0.14605 -0.430037,0 -0.795162,0.14605 -0.357012,0.14605 -0.632884,0.42192 -0.267759,0.26776 -0.421923,0.63288 -0.14605,0.35702 -0.14605,0.79517 0,0.43003 0.14605,0.79516 0.154164,0.36512 0.421923,0.641 0.267758,0.26776 0.632884,0.41381 0.365125,0.14605 0.795162,0.14605 z"
         style="fill:#ffffff"
         id="path1698" /><path
         d="m -70.904865,141.97029 v -5.67973 h 0.868187 l 2.482853,4.1462 h -0.454378 l 2.442284,-4.1462 h 0.868187 l 0.0081,5.67973 h -0.99801 l -0.0081,-4.11375 h 0.210961 l -2.077159,3.46464 h -0.470606 l -2.109614,-3.46464 h 0.243417 v 4.11375 z"
         style="fill:#ffffff"
         id="path1700" /><path
         d="m -62.182422,138.65171 h 2.823637 v 0.86818 h -2.823637 z m 0.08114,2.43417 h 3.204991 v 0.88441 h -4.259798 v -5.67973 h 4.146203 v 0.88442 h -3.091396 z"
         style="fill:#ffffff"
         id="path1702" /><path
         d="m -57.719792,141.97029 v -5.67973 h 2.336804 q 0.754592,0 1.29011,0.24342 0.543631,0.24342 0.835732,0.69779 0.2921,0.45438 0.2921,1.07915 0,0.62477 -0.2921,1.07915 -0.292101,0.44627 -0.835732,0.68968 -0.535518,0.23531 -1.29011,0.23531 h -1.752603 l 0.470606,-0.47872 v 2.13395 z m 3.716167,0 -1.436161,-2.06093 h 1.127833 l 1.444274,2.06093 z m -2.66136,-2.02036 -0.470606,-0.50306 h 1.703919 q 0.697796,0 1.046693,-0.30022 0.357012,-0.30021 0.357012,-0.83573 0,-0.54363 -0.357012,-0.83573 -0.348897,-0.2921 -1.046693,-0.2921 h -1.703919 l 0.470606,-0.51929 z"
         style="fill:#ffffff"
         id="path1704" /></g><path
       style="fill:#222222;fill-opacity:1;stroke-width:0.0651503"
       d="m -75.317344,129.17355 c -1.863709,-0.2901 -4.119091,-1.145 -5.614214,-2.12918 -3.270342,-2.15304 -5.491095,-5.40568 -6.286751,-9.20466 -0.193912,-0.92801 -0.298563,-2.92715 -0.208532,-3.9906 0.250855,-2.97177 1.528212,-6.0051 3.426548,-8.1366 2.33387,-2.62165 5.169449,-4.19757 8.606,-4.78393 0.323187,-0.0554 1.055743,-0.11696 1.629015,-0.13851 1.68211,-0.06 3.12029,0.12312 4.750074,0.6079 0.891073,0.26547 1.211181,0.40321 1.211181,0.52326 0,0.0962 -0.193911,0.61559 -0.257779,0.68946 -0.02309,0.027 -0.345503,-0.0539 -0.715628,-0.17776 -1.027272,-0.34626 -3.050267,-0.75102 -3.752044,-0.75102 h -0.161592 v 26.72754 l 0.505556,-0.0462 c 1.049587,-0.097 2.539324,-0.40937 3.490415,-0.73332 0.570194,-0.19469 0.544031,-0.20546 0.737943,0.29547 0.09311,0.24086 0.09542,0.29241 0.01693,0.36859 -0.113884,0.1085 -0.913387,0.36166 -2.111487,0.66715 l -0.911848,0.23239 -1.987597,0.0193 c -1.092679,0.01 -2.157657,-0.008 -2.36542,-0.04 z m 1.585154,-3.87438 v -3.02949 h -5.397988 l 0.06695,0.24392 c 0.164672,0.59867 1.058053,2.38543 1.572072,3.14415 0.571734,0.84413 1.452802,1.71442 2.180741,2.15534 0.407832,0.24778 1.125767,0.51095 1.397398,0.51402 l 0.179292,0.002 z m -3.605071,2.03145 c -1.049587,-1.18193 -2.023764,-2.87712 -2.618582,-4.55539 l -0.178521,-0.50555 h -2.141496 c -1.177324,0 -2.141497,0.0193 -2.141497,0.0431 0,0.10388 0.948783,1.2912 1.463574,1.83216 a 13.663871,13.663871 0 0 0 3.83207,2.83942 c 0.864908,0.43399 2.054545,0.90184 2.149191,0.84413 0.0277,-0.0169 -0.136199,-0.24085 -0.364739,-0.49786 z m -3.171076,-6.2252 c 0,-0.067 -0.07156,-0.46938 -0.159286,-0.89569 a 31.876979,31.876979 0 0 1 -0.261627,-1.47357 c -0.09542,-0.64868 -0.294715,-2.69629 -0.295485,-3.03025 v -0.14621 h -5.361051 l 0.04463,0.43862 c 0.184679,1.8514 0.520947,3.10797 1.298134,4.85395 l 0.16698,0.37473 h 2.283852 c 2.186896,0 2.283853,-0.005 2.283852,-0.12158 z m 6.775377,-2.71245 v -2.83404 h -6.534526 l 0.03848,0.89569 c 0.02078,0.49248 0.08541,1.26197 0.143894,1.71058 0.114654,0.8803 0.443228,2.60858 0.550188,2.88867 l 0.06541,0.17313 h 5.736562 z m -7.491775,-3.99059 c 0,-0.34473 0.21315,-2.39081 0.329343,-3.17568 0.118501,-0.80412 0.332421,-1.93451 0.427838,-2.26385 0.03078,-0.10773 -0.107729,-0.11388 -2.283084,-0.11388 h -2.316171 l -0.173135,0.34165 c -0.630984,1.24581 -1.15193,3.21185 -1.293517,4.88627 l -0.03771,0.44015 h 2.673218 c 2.502387,0 2.673214,-0.008 2.673214,-0.11466 z m 7.491775,-2.72015 v -2.8348 l -2.881748,0.0169 -2.881747,0.0169 -0.117732,0.42322 c -0.260859,0.94185 -0.698699,4.05213 -0.698699,4.96321 v 0.24932 h 6.579926 z m -6.132852,-4.59233 c 0.373974,-0.96726 1.051897,-2.32926 1.474347,-2.96485 a 14.597265,14.597266 0 0 1 0.874143,-1.13731 c 0.28933,-0.33935 0.527103,-0.64021 0.527103,-0.66791 0,-0.1539 -0.810276,0.13003 -2.002219,0.69946 -1.375852,0.65715 -2.365418,1.34815 -3.495033,2.43774 -0.603281,0.58174 -1.666721,1.83294 -1.835239,2.15998 l -0.09772,0.1893 h 4.277607 z m 6.132852,-2.34542 c 0,-1.93757 -0.02308,-3.06257 -0.0631,-3.06257 -0.148511,0 -1.154237,0.40476 -1.554374,0.62561 -0.541722,0.29855 -1.568994,1.32275 -2.151501,2.14533 -0.536334,0.75795 -1.35969,2.40389 -1.602851,3.20648 l -0.04463,0.14698 h 5.417226 z m 9.012292,24.17437 c -0.402444,-0.18237 -0.781034,-0.60636 -0.911078,-1.01958 -0.09388,-0.29779 -0.100034,-0.40782 -0.03463,-0.7264 l 0.109267,-0.53864 c 0.02693,-0.13697 -0.07849,-0.27779 -0.667919,-0.89261 l -0.700238,-0.73101 -2.225371,-0.0508 c -1.224261,-0.0285 -2.239221,-0.0662 -2.25692,-0.0846 -0.01693,-0.0177 -0.05156,-0.21546 -0.07695,-0.43861 l -0.04617,-0.40783 h 4.930137 l 0.927237,0.92493 0.926469,0.92569 0.572501,0.006 c 0.640218,0.007 0.847211,0.0847 1.220415,0.45708 0.374742,0.37474 0.528642,1.13269 0.337806,1.66595 -0.300871,0.84182 -1.301979,1.27505 -2.104559,0.91107 z m 1.079598,-1.01573 c 0.264704,-0.30164 0.272399,-0.60174 0.02309,-0.87876 -0.346272,-0.38397 -0.858753,-0.31856 -1.095757,0.14005 -0.227001,0.43861 0.112346,0.96879 0.621749,0.96879 0.203146,0 0.285483,-0.0424 0.450923,-0.23085 z m -4.586173,-5.43031 c -0.531719,-0.1385 -1.064978,-0.64406 -1.203486,-1.14115 -0.138508,-0.49324 0.03232,-1.13347 0.407831,-1.52975 0.679461,-0.71563 1.852937,-0.60251 2.482381,0.23931 l 0.253163,0.33857 h 5.314112 l 1.063439,-1.10729 1.064207,-1.10807 v -0.63483 c 0,-0.57711 0.01616,-0.6633 0.180061,-0.94186 0.323187,-0.55018 1.005727,-0.88953 1.605931,-0.80027 0.374742,0.0562 0.561729,0.1539 0.868756,0.45247 0.372433,0.36243 0.46862,0.58943 0.469389,1.11114 0.003,0.84798 -0.464002,1.40663 -1.293515,1.54898 -0.313953,0.0539 -0.520177,0.0539 -0.771031,0.002 l -0.343193,-0.0723 -1.30506,1.29659 -1.305058,1.2966 h -2.817879 c -2.623969,0 -2.820959,0.008 -2.860202,0.11388 -0.162364,0.43708 -0.809506,0.91801 -1.291979,0.95956 -0.176983,0.0154 -0.410908,0.005 -0.517867,-0.0231 z m 0.818739,-1.11037 c 0.425529,-0.42476 0.132353,-1.11269 -0.474007,-1.11269 -0.333959,0 -0.524025,0.11542 -0.63637,0.38783 -0.19699,0.474 0.107728,0.91569 0.630983,0.91569 0.233156,0 0.326266,-0.0377 0.479394,-0.19083 z m 10.478174,-3.42192 c 0.518638,-0.26779 0.369356,-1.09884 -0.223153,-1.24735 -0.219305,-0.0554 -0.595586,0.13312 -0.71101,0.35627 -0.332421,0.6433 0.281633,1.22811 0.934163,0.89108 z m -6.802309,-1.40433 -1.235806,-1.23735 h -2.950232 l -0.0808,0.19469 c -0.09234,0.22161 -0.475547,0.58943 -0.794116,0.76026 -0.144665,0.0777 -0.355507,0.11543 -0.639448,0.11466 -1.216568,-0.005 -1.983751,-1.22889 -1.438951,-2.29618 0.16698,-0.32704 0.582506,-0.68485 0.908,-0.78257 0.754872,-0.22624 1.474347,0.0431 1.903725,0.71331 l 0.204684,0.31858 1.638249,0.005 1.638249,0.005 1.398937,1.4328 1.398166,1.43356 -0.323186,0.28471 c -0.178521,0.15698 -0.338577,0.28702 -0.357045,0.28779 -0.01847,0.002 -0.590199,-0.55404 -1.269661,-1.23503 z m -5.239473,-1.29814 c 0.149282,-0.14928 0.190834,-0.24855 0.190834,-0.46092 0,-0.57866 -0.65022,-0.86338 -1.102683,-0.48248 -0.173905,0.14621 -0.200067,0.21085 -0.200067,0.49171 0,0.44092 0.193911,0.64253 0.62098,0.64253 0.246237,0 0.335498,-0.0347 0.490936,-0.19084 z m 1.868327,-3.74589 c -0.842594,-0.30009 -1.277357,-1.31044 -0.915695,-2.12379 a 1.7859912,1.7859912 0 0 1 0.794886,-0.82643 c 0.335497,-0.16698 1.000338,-0.1539 1.345071,0.0277 0.294716,0.1539 0.773339,0.64098 0.841054,0.85567 0.04386,0.13851 0.06156,0.14005 1.84909,0.14005 h 1.80523 l 0.643294,-0.6456 0.642526,-0.64637 -0.07387,-0.29472 c -0.180831,-0.71871 -0.03694,-1.25582 0.458617,-1.71137 0.371665,-0.34088 0.677923,-0.44399 1.171167,-0.39243 0.611747,0.0646 1.061899,0.36165 1.31891,0.87183 0.369356,0.73257 0.03694,1.73752 -0.699468,2.11304 -0.313184,0.16006 -0.897998,0.22469 -1.221955,0.13466 l -0.233925,-0.0638 -0.861062,0.80566 -0.86183,0.80642 h -3.890553 l -0.130813,0.21161 c -0.426299,0.68946 -1.254272,0.99726 -1.980672,0.73794 z m 0.988797,-0.98802 c 0.173905,-0.1462 0.200068,-0.21084 0.200068,-0.49171 0,-0.44091 -0.194681,-0.64252 -0.62098,-0.64252 -0.246237,0 -0.335499,0.0347 -0.491705,0.19007 -0.310106,0.31087 -0.250854,0.8095 0.120809,1.01111 0.27471,0.14927 0.564039,0.12465 0.791808,-0.067 z m 7.898067,-2.55702 c 0.176984,-0.15851 0.207763,-0.23085 0.207763,-0.4894 0,-0.3632 -0.188526,-0.60482 -0.517868,-0.66715 -0.312414,-0.0585 -0.550957,0.0462 -0.687926,0.30164 -0.156977,0.29395 -0.15159,0.52634 0.02001,0.74334 0.269322,0.34319 0.667149,0.38859 0.977254,0.11157 z m -12.975174,-1.99761 v -0.48863 l 2.231526,-0.01 2.231527,-0.01 0.961865,-0.98648 0.961865,-0.98725 -0.107729,-0.31319 c -0.124658,-0.36704 -0.09465,-0.95185 0.06387,-1.25965 0.131584,-0.25394 0.454002,-0.57712 0.716397,-0.71717 0.301642,-0.16159 1.188097,-0.15621 1.445877,0.008 0.597126,0.37936 0.834899,0.79027 0.838746,1.44356 0.0015,0.38245 -0.0277,0.50787 -0.174675,0.75872 -0.205454,0.35166 -0.62175,0.67869 -0.986488,0.77719 -0.148514,0.04 -0.439381,0.0508 -0.693312,0.0254 l -0.437073,-0.0439 -1.154238,1.14577 -1.155777,1.14654 h -4.743148 z m 8.129683,-2.74016 c 0.184679,-0.12927 0.340115,-0.42783 0.340115,-0.65099 0,-0.24777 -0.383976,-0.61559 -0.641757,-0.61559 -0.4363,0 -0.7264,0.2878 -0.7264,0.72025 0,0.29241 0.363201,0.6479 0.663302,0.6479 0.12081,0 0.284712,-0.0462 0.36474,-0.10157 z"
       id="path1707" /></g></svg>
