<?xml version="1.0" encoding="UTF-8" standalone="no"?>
<!-- Created with Inkscape (http://www.inkscape.org/) -->

<svg
   width="200"
   height="200"
   viewBox="0 0 52.916668 52.916666"
   version="1.1"
   id="svg8"
   inkscape:version="1.2 (dc2aeda, 2022-05-15)"
   sodipodi:docname="phil_1.svg"
   xml:space="preserve"
   xmlns:inkscape="http://www.inkscape.org/namespaces/inkscape"
   xmlns:sodipodi="http://sodipodi.sourceforge.net/DTD/sodipodi-0.dtd"
   xmlns="http://www.w3.org/2000/svg"
   xmlns:svg="http://www.w3.org/2000/svg"
   xmlns:rdf="http://www.w3.org/1999/02/22-rdf-syntax-ns#"
   xmlns:cc="http://creativecommons.org/ns#"
   xmlns:dc="http://purl.org/dc/elements/1.1/"><defs
     id="defs2"><inkscape:path-effect
       effect="envelope"
       id="path-effect4658"
       is_visible="true"
       yy="true"
       xx="true"
       bendpath1="m -199.08406,108.42369 h 7.0057"
       bendpath2="m -192.07836,108.42369 v 6.75242"
       bendpath3="m -199.08406,115.17611 h 7.0057"
       bendpath4="m -199.08406,108.42369 v 6.75242" /><inkscape:path-effect
       effect="bend_path"
       id="path-effect4656"
       is_visible="true"
       bendpath="m -192.00142,114.60623 c 2.12577,-0.53066 4.48261,0.85111 7.0057,0"
       prop_scale="1"
       scale_y_rel="false"
       vertical="false"
       bendpath-nodetypes="cc" /><inkscape:path-effect
       effect="bounding_box"
       id="path-effect4654"
       is_visible="true"
       linkedpath=""
       visualbounds="false" /></defs><sodipodi:namedview
     id="base"
     pagecolor="#ffffff"
     bordercolor="#666666"
     borderopacity="1.0"
     inkscape:pageopacity="0.0"
     inkscape:pageshadow="2"
     inkscape:zoom="2"
     inkscape:cx="63.75"
     inkscape:cy="104"
     inkscape:document-units="px"
     inkscape:current-layer="layer1"
     showgrid="false"
     fit-margin-top="0"
     fit-margin-left="0"
     fit-margin-right="0"
     fit-margin-bottom="0"
     inkscape:window-width="1280"
     inkscape:window-height="632"
     inkscape:window-x="0"
     inkscape:window-y="25"
     inkscape:window-maximized="0"
     showguides="false"
     inkscape:object-nodes="true"
     units="px"
     inkscape:snap-page="true"
     inkscape:showpageshadow="2"
     inkscape:pagecheckerboard="0"
     inkscape:deskcolor="#d1d1d1" /><metadata
     id="metadata5"><rdf:RDF><cc:Work
         rdf:about=""><dc:format>image/svg+xml</dc:format><dc:type
           rdf:resource="http://purl.org/dc/dcmitype/StillImage" /><dc:title /></cc:Work></rdf:RDF></metadata><g
     inkscape:label="Layer 1"
     inkscape:groupmode="layer"
     id="layer1"
     transform="translate(98.048812,-95.14345)"><g
       style="stroke-width:0.5"
       transform="matrix(2,0,0,2,-98.048813,95.143449)"
       id="g5361"><rect
         y="-1.110223e-16"
         x="0"
         height="26.458334"
         width="26.458334"
         id="rect5349"
         style="opacity:1;fill:#222222;fill-opacity:1;fill-rule:nonzero;stroke:none;stroke-width:0.25;stroke-linecap:butt;stroke-linejoin:round;stroke-miterlimit:4;stroke-dasharray:none;stroke-dashoffset:0;stroke-opacity:0.90944878;paint-order:normal"
         rx="1.984375"
         ry="1.984375" /><rect
         style="opacity:1;fill:#b86010;fill-opacity:1;fill-rule:nonzero;stroke:none;stroke-width:0.25;stroke-linecap:butt;stroke-linejoin:round;stroke-miterlimit:4;stroke-dasharray:none;stroke-dashoffset:0;stroke-opacity:0.90944878;paint-order:normal"
         id="rect5351"
         width="23.8125"
         height="23.8125"
         x="1.322917"
         y="1.322917"
         rx="1.3229166"
         ry="1.3229166" /><path
         inkscape:connector-curvature="0"
         id="path5355"
         d="m 0.7276035,18.520835 v 4.167188 c 0,1.539081 1.2390438,2.778125 2.778125,2.778125 H 22.952604 c 1.539081,0 2.778125,-1.239044 2.778125,-2.778125 v -4.167188 z"
         style="opacity:1;fill:#222222;fill-opacity:1;fill-rule:nonzero;stroke:none;stroke-width:0.25;stroke-linecap:butt;stroke-linejoin:round;stroke-miterlimit:4;stroke-dasharray:none;stroke-dashoffset:0;stroke-opacity:0.90944878;paint-order:normal" /></g><path
       style="fill:#222222;fill-opacity:1;stroke-width:0.0357413"
       d="m -74.118188,129.20646 c -0.104421,-0.0766 -0.180473,-0.16601 -0.204519,-0.24044 -0.0412,-0.12779 -0.160211,-0.83753 -0.418087,-2.49421 -0.09024,-0.57939 -0.171018,-1.0646 -0.179394,-1.07826 -0.0084,-0.0134 -0.212083,-0.10131 -0.452804,-0.19478 a 25.340043,25.340043 0 0 1 -0.790785,-0.32447 l -0.353383,-0.15428 -1.377597,1.03624 -1.377465,1.03638 -0.324199,-0.003 c -0.317455,-0.003 -0.327719,-0.004 -0.48523,-0.12766 -0.08834,-0.07 -0.450232,-0.39783 -0.804155,-0.72865 -1.057038,-0.98802 -2.033709,-2.01492 -2.303204,-2.42167 -0.100905,-0.15237 -0.109277,-0.18898 -0.109277,-0.47604 v -0.31097 l 0.173985,-0.26368 c 0.09591,-0.14508 0.506169,-0.68987 0.912093,-1.21076 0.405799,-0.52102 0.78025,-1.00773 0.831852,-1.08176 0.108073,-0.15468 0.123607,-0.0915 -0.195603,-0.7947 -0.09807,-0.21615 -0.228962,-0.53806 -0.29057,-0.71502 -0.06172,-0.17695 -0.124539,-0.34175 -0.139537,-0.36607 -0.01713,-0.0279 -0.575463,-0.12469 -1.490799,-0.25883 -2.165408,-0.31731 -2.212685,-0.32919 -2.33845,-0.58897 -0.07295,-0.15062 -0.0739,-0.1883 -0.06417,-2.50744 0.0092,-2.17433 0.01488,-2.36345 0.07321,-2.47029 0.03487,-0.0637 0.101995,-0.14117 0.149138,-0.17211 0.11104,-0.0726 0.551825,-0.16075 1.592655,-0.31772 1.477023,-0.22288 2.026545,-0.31285 2.068418,-0.33879 0.02247,-0.014 0.113339,-0.21627 0.201954,-0.44983 0.08848,-0.23357 0.241122,-0.59207 0.338928,-0.79686 0.0978,-0.2048 0.166965,-0.39067 0.153994,-0.41297 -0.06632,-0.1132 -0.588293,-0.80132 -1.115393,-1.4704 -0.325016,-0.41281 -0.6761,-0.86886 -0.779981,-1.01353 -0.178584,-0.24843 -0.188983,-0.27476 -0.188983,-0.48011 0,-0.27313 0.067,-0.41524 0.38256,-0.81185 0.313664,-0.39404 1.884699,-1.98751 2.374119,-2.40789 0.531825,-0.45671 0.732834,-0.57141 1.029209,-0.5872 0.193982,-0.0104 0.261524,0.003 0.386612,0.0707 0.129006,0.0708 0.704335,0.50629 2.371149,1.79488 l 0.306643,0.23707 0.247206,-0.11348 c 0.136031,-0.0626 0.496706,-0.21302 0.801323,-0.33446 l 0.553982,-0.2206 0.04378,-0.24693 c 0.02418,-0.1359 0.09996,-0.6491 0.168452,-1.14053 0.141434,-1.01409 0.281381,-1.80635 0.3677,-2.08233 0.07888,-0.25193 0.206952,-0.39782 0.384993,-0.43876 0.07876,-0.018 1.171323,-0.0331 2.428152,-0.0336 2.229442,-8.9e-4 2.288745,9.9e-4 2.435987,0.0723 0.253149,0.12252 0.263415,0.16075 0.569248,2.14285 0.110771,0.71757 0.220188,1.39907 0.243288,1.51458 l 0.04202,0.20992 0.518322,0.20262 c 0.285028,0.11158 0.634088,0.25639 0.775656,0.32177 0.14157,0.0655 0.27868,0.11077 0.304887,0.10078 0.02607,-0.01 0.529534,-0.37838 1.11864,-0.81862 1.797439,-1.34301 1.64628,-1.24508 1.920908,-1.24508 0.301914,0 0.379317,0.0315 0.685421,0.27856 0.345817,0.27935 2.181756,2.11852 2.584308,2.58903 0.422818,0.49414 0.473203,0.5937 0.473203,0.93289 0,0.25665 -0.0054,0.27301 -0.173313,0.52859 -0.09537,0.14494 -0.368512,0.51292 -0.607207,0.81767 -0.238696,0.30461 -0.62004,0.79753 -0.847658,1.09513 l -0.413767,0.54129 0.140895,0.28085 c 0.0774,0.15439 0.215867,0.47387 0.307454,0.70973 0.225457,0.58005 0.274763,0.69123 0.32596,0.73352 0.02404,0.02 0.709197,0.14048 1.522406,0.26785 2.179462,0.34124 2.022222,0.30531 2.203236,0.50265 l 0.152645,0.16643 -0.0097,2.38412 -0.0097,2.38412 -0.08605,0.12562 c -0.175071,0.25544 -0.161292,0.25181 -2.053428,0.5406 -1.209414,0.18453 -1.755835,0.28167 -1.777041,0.31571 -0.01676,0.027 -0.121713,0.2745 -0.233158,0.54965 -0.111579,0.27518 -0.256795,0.60856 -0.322852,0.74068 -0.06619,0.13224 -0.120227,0.25868 -0.120227,0.2811 0,0.0502 0.533588,0.76189 1.230355,1.64089 0.28827,0.36365 0.599371,0.77093 0.691364,0.9048 0.15116,0.22018 0.168316,0.26651 0.180069,0.48252 0.01229,0.22761 0.0062,0.24923 -0.128331,0.45646 -0.218298,0.33569 -0.745669,0.92938 -1.490932,1.67748 -0.790653,0.79402 -1.294925,1.24859 -1.640742,1.4789 l -0.2468,0.16454 h -0.651514 l -0.241398,-0.17223 c -0.132654,-0.0947 -0.687582,-0.52088 -1.232919,-0.94722 -0.545339,-0.42619 -1.047585,-0.81726 -1.116073,-0.869 l -0.124279,-0.094 -0.268143,0.13347 c -0.283949,0.14143 -1.179967,0.50143 -1.247917,0.50143 -0.07335,0 -0.106714,0.15332 -0.217753,1.00072 -0.136976,1.04622 -0.26112,1.79703 -0.380806,2.30184 -0.114148,0.48156 -0.218298,0.62153 -0.496842,0.66731 -0.09699,0.0157 -1.189693,0.0295 -2.428153,0.0301 l -2.251594,0.004 -0.16629,-0.12198 z m 3.364966,-9.58453 c 1.378001,-0.24303 2.682111,-1.23063 3.350376,-2.53744 0.352977,-0.69029 0.489955,-1.28359 0.486172,-2.10435 -0.0063,-1.35059 -0.487523,-2.42073 -1.529703,-3.40279 -0.525075,-0.49482 -1.047314,-0.80862 -1.710851,-1.028 -1.32829,-0.4393 -2.753031,-0.25897 -3.938401,0.49846 -0.337712,0.21559 -0.827801,0.65409 -1.110535,0.99342 -0.493869,0.59247 -0.7816,1.1597 -0.970851,1.91441 -0.08564,0.34164 -0.09578,0.44796 -0.09672,1.0245 -7.22e-4,0.40308 0.01661,0.72351 0.04594,0.85779 0.144945,0.66136 0.377021,1.22615 0.710546,1.72948 0.244232,0.36837 0.884129,1.02124 1.261559,1.28723 0.482521,0.34001 1.124445,0.62341 1.71193,0.75594 0.440647,0.0994 1.261693,0.10454 1.790685,0.0114 z"
       id="path351" /><g
       aria-label="CONCRETE"
       id="text414"
       style="font-weight:600;font-size:8.1139px;font-family:Montserrat;-inkscape-font-specification:'Montserrat Semi-Bold';fill:#ffffff;stroke-width:1.632"
       transform="translate(0.1322865)"><path
         d="m -90.761037,142.05143 q -0.649112,0 -1.208971,-0.21096 -0.551745,-0.21908 -0.965554,-0.60854 -0.405695,-0.39758 -0.632884,-0.9331 -0.227189,-0.53552 -0.227189,-1.1684 0,-0.63289 0.227189,-1.16841 0.227189,-0.53551 0.640998,-0.92498 0.413809,-0.39758 0.965554,-0.60854 0.551745,-0.21908 1.208971,-0.21908 0.697796,0 1.273883,0.24342 0.576086,0.2353 0.973668,0.70591 l -0.681568,0.641 q -0.308328,-0.33267 -0.689682,-0.49495 -0.381353,-0.17039 -0.827617,-0.17039 -0.446265,0 -0.819504,0.14605 -0.365126,0.14605 -0.640998,0.41381 -0.267759,0.26775 -0.421923,0.63288 -0.14605,0.36513 -0.14605,0.80328 0,0.43815 0.14605,0.80327 0.154164,0.36513 0.421923,0.63289 0.275872,0.26776 0.640998,0.41381 0.373239,0.14605 0.819504,0.14605 0.446264,0 0.827617,-0.16228 0.381354,-0.17039 0.689682,-0.51118 l 0.681568,0.64911 q -0.397582,0.4625 -0.973668,0.70591 -0.576087,0.24342 -1.281997,0.24342 z"
         id="path466" /><path
         d="m -85.215987,142.05143 q -0.665339,0 -1.225198,-0.21908 -0.55986,-0.21907 -0.973668,-0.60854 -0.413809,-0.39758 -0.640999,-0.92498 -0.227189,-0.53552 -0.227189,-1.1684 0,-0.63289 0.227189,-1.16029 0.22719,-0.53552 0.640999,-0.92499 0.413808,-0.39758 0.973668,-0.61665 0.559859,-0.21908 1.217085,-0.21908 0.665339,0 1.217085,0.21908 0.559859,0.21907 0.973668,0.61665 0.413809,0.38947 0.640998,0.92499 0.227189,0.5274 0.227189,1.16029 0,0.63288 -0.227189,1.1684 -0.227189,0.53552 -0.640998,0.92498 -0.413809,0.38947 -0.973668,0.60854 -0.551746,0.21908 -1.208972,0.21908 z m -0.0081,-0.92498 q 0.430036,0 0.795162,-0.14605 0.365125,-0.14605 0.632884,-0.41381 0.267759,-0.27588 0.413809,-0.63289 0.154164,-0.36512 0.154164,-0.80327 0,-0.43815 -0.154164,-0.79517 -0.14605,-0.36512 -0.413809,-0.63288 -0.267759,-0.27587 -0.632884,-0.42192 -0.365126,-0.14605 -0.795162,-0.14605 -0.430037,0 -0.795163,0.14605 -0.357011,0.14605 -0.632884,0.42192 -0.267759,0.26776 -0.421923,0.63288 -0.14605,0.35702 -0.14605,0.79517 0,0.43003 0.14605,0.79516 0.154164,0.36512 0.421923,0.641 0.267759,0.26776 0.632884,0.41381 0.365126,0.14605 0.795163,0.14605 z"
         id="path468" /><path
         d="m -81.442239,141.97029 v -5.67973 h 0.868187 l 3.562003,4.37339 h -0.430037 v -4.37339 h 1.046693 v 5.67973 h -0.868187 l -3.562003,-4.37339 h 0.430037 v 4.37339 z"
         id="path470" /><path
         d="m -72.505844,142.05143 q -0.649112,0 -1.208971,-0.21096 -0.551746,-0.21908 -0.965554,-0.60854 -0.405695,-0.39758 -0.632885,-0.9331 -0.227189,-0.53552 -0.227189,-1.1684 0,-0.63289 0.227189,-1.16841 0.22719,-0.53551 0.640998,-0.92498 0.413809,-0.39758 0.965555,-0.60854 0.551745,-0.21908 1.208971,-0.21908 0.697795,0 1.273882,0.24342 0.576087,0.2353 0.973668,0.70591 l -0.681568,0.641 q -0.308328,-0.33267 -0.689681,-0.49495 -0.381353,-0.17039 -0.827618,-0.17039 -0.446264,0 -0.819504,0.14605 -0.365125,0.14605 -0.640998,0.41381 -0.267759,0.26775 -0.421923,0.63288 -0.14605,0.36513 -0.14605,0.80328 0,0.43815 0.14605,0.80327 0.154164,0.36513 0.421923,0.63289 0.275873,0.26776 0.640998,0.41381 0.37324,0.14605 0.819504,0.14605 0.446265,0 0.827618,-0.16228 0.381353,-0.17039 0.689681,-0.51118 l 0.681568,0.64911 q -0.397581,0.4625 -0.973668,0.70591 -0.576087,0.24342 -1.281996,0.24342 z"
         id="path472" /><path
         d="m -69.606103,141.97029 v -5.67973 h 2.336803 q 0.754593,0 1.29011,0.24342 0.543632,0.24342 0.835732,0.69779 0.292101,0.45438 0.292101,1.07915 0,0.62477 -0.292101,1.07915 -0.2921,0.44627 -0.835732,0.68968 -0.535517,0.23531 -1.29011,0.23531 h -1.752602 l 0.470606,-0.47872 v 2.13395 z m 3.716166,0 -1.43616,-2.06093 h 1.127832 l 1.444274,2.06093 z m -2.661359,-2.02036 -0.470606,-0.50306 h 1.703919 q 0.697795,0 1.046693,-0.30022 0.357012,-0.30021 0.357012,-0.83573 0,-0.54363 -0.357012,-0.83573 -0.348898,-0.2921 -1.046693,-0.2921 h -1.703919 l 0.470606,-0.51929 z"
         id="path474" /><path
         d="m -63.208478,138.65171 h 2.823637 v 0.86818 h -2.823637 z m 0.08114,2.43417 h 3.20499 v 0.88441 h -4.259797 v -5.67973 h 4.146203 v 0.88442 h -3.091396 z"
         id="path476" /><path
         d="m -57.509968,141.97029 v -4.7872 h -1.882425 v -0.89253 h 4.819657 v 0.89253 h -1.882425 v 4.7872 z"
         id="path478" /><path
         d="m -52.93603,138.65171 h 2.823638 v 0.86818 h -2.823638 z m 0.08114,2.43417 h 3.204991 v 0.88441 h -4.259798 v -5.67973 h 4.146203 v 0.88442 h -3.091396 z"
         id="path480" /></g></g></svg>
