<?xml version="1.0" encoding="UTF-8" standalone="no"?>
<!-- Created with Inkscape (http://www.inkscape.org/) -->

<svg
   width="200"
   height="200"
   viewBox="0 0 52.916668 52.916666"
   version="1.1"
   id="svg8"
   inkscape:version="1.2 (dc2aeda, 2022-05-15)"
   sodipodi:docname="pol_0.svg"
   xml:space="preserve"
   xmlns:inkscape="http://www.inkscape.org/namespaces/inkscape"
   xmlns:sodipodi="http://sodipodi.sourceforge.net/DTD/sodipodi-0.dtd"
   xmlns="http://www.w3.org/2000/svg"
   xmlns:svg="http://www.w3.org/2000/svg"
   xmlns:rdf="http://www.w3.org/1999/02/22-rdf-syntax-ns#"
   xmlns:cc="http://creativecommons.org/ns#"
   xmlns:dc="http://purl.org/dc/elements/1.1/"><defs
     id="defs2"><inkscape:path-effect
       effect="envelope"
       id="path-effect4658"
       is_visible="true"
       yy="true"
       xx="true"
       bendpath1="m -199.08406,108.42369 h 7.0057"
       bendpath2="m -192.07836,108.42369 v 6.75242"
       bendpath3="m -199.08406,115.17611 h 7.0057"
       bendpath4="m -199.08406,108.42369 v 6.75242" /><inkscape:path-effect
       effect="bend_path"
       id="path-effect4656"
       is_visible="true"
       bendpath="m -192.00142,114.60623 c 2.12577,-0.53066 4.48261,0.85111 7.0057,0"
       prop_scale="1"
       scale_y_rel="false"
       vertical="false"
       bendpath-nodetypes="cc" /><inkscape:path-effect
       effect="bounding_box"
       id="path-effect4654"
       is_visible="true"
       linkedpath=""
       visualbounds="false" /></defs><sodipodi:namedview
     id="base"
     pagecolor="#ffffff"
     bordercolor="#666666"
     borderopacity="1.0"
     inkscape:pageopacity="0.0"
     inkscape:pageshadow="2"
     inkscape:zoom="2"
     inkscape:cx="85.25"
     inkscape:cy="112"
     inkscape:document-units="px"
     inkscape:current-layer="layer1"
     showgrid="false"
     fit-margin-top="0"
     fit-margin-left="0"
     fit-margin-right="0"
     fit-margin-bottom="0"
     inkscape:window-width="1280"
     inkscape:window-height="638"
     inkscape:window-x="0"
     inkscape:window-y="25"
     inkscape:window-maximized="0"
     showguides="false"
     inkscape:object-nodes="false"
     units="px"
     inkscape:showpageshadow="2"
     inkscape:pagecheckerboard="0"
     inkscape:deskcolor="#d1d1d1" /><metadata
     id="metadata5"><rdf:RDF><cc:Work
         rdf:about=""><dc:format>image/svg+xml</dc:format><dc:type
           rdf:resource="http://purl.org/dc/dcmitype/StillImage" /><dc:title /></cc:Work></rdf:RDF></metadata><g
     inkscape:label="Layer 1"
     inkscape:groupmode="layer"
     id="layer1"
     transform="translate(39.608708,-92.411388)"><g
       style="stroke-width:0.5"
       id="g4561"
       transform="matrix(2,0,0,2,-39.608708,92.411388)"><rect
         y="-1.110223e-16"
         x="0"
         height="26.458334"
         width="26.458334"
         id="rect4485"
         style="opacity:1;fill:#222222;fill-opacity:1;fill-rule:nonzero;stroke:none;stroke-width:0.25;stroke-linecap:butt;stroke-linejoin:round;stroke-miterlimit:4;stroke-dasharray:none;stroke-dashoffset:0;stroke-opacity:0.90944878;paint-order:normal"
         rx="1.984375"
         ry="1.984375" /><rect
         style="opacity:1;fill:#ff6666;fill-opacity:1;fill-rule:nonzero;stroke:none;stroke-width:0.25;stroke-linecap:butt;stroke-linejoin:round;stroke-miterlimit:4;stroke-dasharray:none;stroke-dashoffset:0;stroke-opacity:0.90944878;paint-order:normal"
         id="rect4487"
         width="23.8125"
         height="23.8125"
         x="1.322917"
         y="1.322917"
         rx="1.3229166"
         ry="1.3229166" /><path
         style="opacity:1;fill:#222222;fill-opacity:1;fill-rule:nonzero;stroke:none;stroke-width:0.24999999;stroke-linecap:butt;stroke-linejoin:round;stroke-miterlimit:4;stroke-dasharray:none;stroke-dashoffset:0;stroke-opacity:0.90944878;paint-order:normal"
         d="m 0.72760467,18.520836 v 4.167188 c 0,1.539081 1.23904383,2.778124 2.77812503,2.778124 H 22.952604 c 1.539081,0 2.778125,-1.239043 2.778125,-2.778124 v -4.167188 z"
         id="rect5205-3"
         inkscape:connector-curvature="0" /><g
         aria-label="LEFT"
         id="text361"
         style="font-weight:600;font-size:4.05695px;font-family:Montserrat;-inkscape-font-specification:'Montserrat Semi-Bold';fill:#ffffff;stroke-width:0.816"><path
           d="M 8.330409,23.413425 V 20.57356 h 0.5274035 v 2.393601 h 1.4848435 v 0.446264 z"
           id="path413" /><path
           d="m 11.247352,21.754133 h 1.411819 v 0.434094 h -1.411819 z m 0.04057,1.217085 h 1.602495 v 0.442207 H 10.760518 V 20.57356 h 2.073102 v 0.442208 h -1.545698 z"
           id="path415" /><path
           d="m 13.961444,21.879898 h 1.415876 v 0.446265 h -1.415876 z m 0.04463,1.533527 H 13.478667 V 20.57356 h 2.073102 v 0.442208 h -1.545698 z"
           id="path417" /><path
           d="m 16.659309,23.413425 v -2.3936 H 15.718097 V 20.57356 h 2.409828 v 0.446265 h -0.941212 v 2.3936 z"
           id="path419" /></g><path
         style="display:none;fill:#000000;stroke-width:0.00832307"
         id="path11528"
         d="" /><path
         style="display:none;fill:#000000;stroke-width:0.00832307"
         id="path11526"
         d="" /></g><path
       style="fill:#222222;fill-opacity:1;stroke-width:0.0343193"
       d="m -1.5078486,127.16935 c -0.1114867,-0.0821 -0.3796021,-0.31617 -0.5957666,-0.52027 -0.5484844,-0.51796 -15.1521158,-15.10795 -15.4517478,-15.43755 -0.134252,-0.14787 -0.288349,-0.29145 -0.342244,-0.31909 -0.102532,-0.0531 -0.12861,-0.0782 -0.351584,-0.33738 -0.0755,-0.0876 -0.681763,-0.71152 -1.347183,-1.3861 -1.541946,-1.56373 -1.511787,-1.246 -0.24282,-2.55467 1.148919,-1.18491 1.354188,-1.36313 1.57113,-1.36313 h 0.170441 l 0.867964,0.83723 c 0.47747,0.46034 2.199,2.17078 3.82597,3.80086 1.626972,1.63009 5.3492365,5.3576 8.2714425,8.28332 6.8670542,6.87483 6.3940611,6.35534 6.3928938,7.02057 -0.00196,0.87185 -1.27052346,2.12544 -2.15132853,2.12544 H -1.3051096 Z m -23.2965054,-17.0719 c -0.244182,-0.11539 -1.669972,-1.50207 -2.549221,-2.47958 -0.222001,-0.24671 -0.284458,-0.759 -0.129387,-1.05922 0.05487,-0.10585 3.507463,-3.62304 5.618518,-5.72341 l 1.144055,-1.13823 2.385395,-1.19541 2.385198,-1.19542 h 0.382909 c 0.613859,0 0.852593,0.23523 0.852593,0.84014 v 0.37026 l -1.189777,2.3854 -1.189973,2.38541 -3.369907,3.39286 c -1.853639,1.86609 -3.393641,3.40649 -3.422436,3.42302 -0.11674,0.0671 -0.772042,0.063 -0.917967,-0.005 z m -0.517938,-6.80599 c -0.279594,-0.30936 -0.07783,-1.01524 0.454702,-1.59312 0.844422,-0.91543 1.044437,-1.04405 1.625804,-1.04521 0.823214,-0.002 0.791889,0.18017 -0.210716,1.21469 -1.351075,1.39446 -1.673861,1.64021 -1.86979,1.42345 z"
       id="path11698" /></g></svg>
