<?xml version="1.0" encoding="UTF-8" standalone="no"?>
<!-- Created with Inkscape (http://www.inkscape.org/) -->

<svg
   width="200"
   height="200"
   viewBox="0 0 52.916668 52.916666"
   version="1.1"
   id="svg8"
   inkscape:version="1.2 (dc2aeda, 2022-05-15)"
   sodipodi:docname="pol_1.svg"
   xml:space="preserve"
   xmlns:inkscape="http://www.inkscape.org/namespaces/inkscape"
   xmlns:sodipodi="http://sodipodi.sourceforge.net/DTD/sodipodi-0.dtd"
   xmlns="http://www.w3.org/2000/svg"
   xmlns:svg="http://www.w3.org/2000/svg"
   xmlns:rdf="http://www.w3.org/1999/02/22-rdf-syntax-ns#"
   xmlns:cc="http://creativecommons.org/ns#"
   xmlns:dc="http://purl.org/dc/elements/1.1/"><defs
     id="defs2"><inkscape:path-effect
       effect="envelope"
       id="path-effect4658"
       is_visible="true"
       yy="true"
       xx="true"
       bendpath1="m -199.08406,108.42369 h 7.0057"
       bendpath2="m -192.07836,108.42369 v 6.75242"
       bendpath3="m -199.08406,115.17611 h 7.0057"
       bendpath4="m -199.08406,108.42369 v 6.75242" /><inkscape:path-effect
       effect="bend_path"
       id="path-effect4656"
       is_visible="true"
       bendpath="m -192.00142,114.60623 c 2.12577,-0.53066 4.48261,0.85111 7.0057,0"
       prop_scale="1"
       scale_y_rel="false"
       vertical="false"
       bendpath-nodetypes="cc" /><inkscape:path-effect
       effect="bounding_box"
       id="path-effect4654"
       is_visible="true"
       linkedpath=""
       visualbounds="false" /></defs><sodipodi:namedview
     id="base"
     pagecolor="#ffffff"
     bordercolor="#666666"
     borderopacity="1.0"
     inkscape:pageopacity="0.0"
     inkscape:pageshadow="2"
     inkscape:zoom="2"
     inkscape:cx="48.25"
     inkscape:cy="106.25"
     inkscape:document-units="mm"
     inkscape:current-layer="layer1"
     showgrid="false"
     fit-margin-top="0"
     fit-margin-left="0"
     fit-margin-right="0"
     fit-margin-bottom="0"
     inkscape:window-width="1280"
     inkscape:window-height="667"
     inkscape:window-x="0"
     inkscape:window-y="27"
     inkscape:window-maximized="0"
     showguides="false"
     inkscape:object-nodes="true"
     units="px"
     inkscape:snap-page="true"
     inkscape:showpageshadow="2"
     inkscape:pagecheckerboard="0"
     inkscape:deskcolor="#d1d1d1" /><metadata
     id="metadata5"><rdf:RDF><cc:Work
         rdf:about=""><dc:format>image/svg+xml</dc:format><dc:type
           rdf:resource="http://purl.org/dc/dcmitype/StillImage" /><dc:title /></cc:Work></rdf:RDF></metadata><g
     inkscape:label="Layer 1"
     inkscape:groupmode="layer"
     id="layer1"
     transform="translate(249.80447,-91.409467)"
     style="display:inline"><g
       style="stroke-width:0.5"
       id="g5334"
       transform="matrix(2,0,0,2,-249.80447,91.409467)"><rect
         ry="1.984375"
         rx="1.984375"
         style="opacity:1;fill:#222222;fill-opacity:1;fill-rule:nonzero;stroke:none;stroke-width:0.25;stroke-linecap:butt;stroke-linejoin:round;stroke-miterlimit:4;stroke-dasharray:none;stroke-dashoffset:0;stroke-opacity:0.909449;paint-order:normal"
         id="rect5322"
         width="26.458334"
         height="26.458334"
         x="0"
         y="-1.110223e-16" /><rect
         ry="1.3229166"
         rx="1.3229166"
         y="1.322917"
         x="1.322917"
         height="23.8125"
         width="23.8125"
         id="rect5324"
         style="opacity:1;fill:#5090fb;fill-opacity:1;fill-rule:nonzero;stroke:none;stroke-width:0.25;stroke-linecap:butt;stroke-linejoin:round;stroke-miterlimit:4;stroke-dasharray:none;stroke-dashoffset:0;stroke-opacity:0.909449;paint-order:normal" /><path
         inkscape:connector-curvature="0"
         id="path5326"
         d="m 0.72760467,18.520836 v 4.167188 c 0,1.539081 1.23904383,2.778124 2.77812503,2.778124 H 22.952604 c 1.539081,0 2.778125,-1.239043 2.778125,-2.778124 v -4.167188 z"
         style="opacity:1;fill:#222222;fill-opacity:1;fill-rule:nonzero;stroke:none;stroke-width:0.25;stroke-linecap:butt;stroke-linejoin:round;stroke-miterlimit:4;stroke-dasharray:none;stroke-dashoffset:0;stroke-opacity:0.909449;paint-order:normal" /></g><g
       aria-label="RIGHT"
       id="text1639"
       style="font-weight:600;font-size:8.1139px;font-family:Montserrat;-inkscape-font-specification:'Montserrat Semi-Bold';fill:#5090fb;stroke-width:1.632"><path
         d="m -236.06871,138.24484 v -5.67973 h 2.3368 q 0.75459,0 1.29011,0.24342 0.54363,0.24342 0.83573,0.69779 0.2921,0.45438 0.2921,1.07915 0,0.62477 -0.2921,1.07915 -0.2921,0.44627 -0.83573,0.68968 -0.53552,0.23531 -1.29011,0.23531 h -1.7526 l 0.4706,-0.47872 v 2.13395 z m 3.71616,0 -1.43616,-2.06093 h 1.12783 l 1.44428,2.06093 z m -2.66136,-2.02036 -0.4706,-0.50306 h 1.70392 q 0.69779,0 1.04669,-0.30021 0.35701,-0.30022 0.35701,-0.83574 0,-0.54363 -0.35701,-0.83573 -0.3489,-0.2921 -1.04669,-0.2921 h -1.70392 l 0.4706,-0.51929 z"
         style="fill:#ffffff"
         id="path190" /><path
         d="m -230.13746,138.24484 v -5.67973 h 1.05481 v 5.67973 z"
         style="fill:#ffffff"
         id="path192" /><path
         d="m -224.8959,138.32598 q -0.66534,0 -1.22519,-0.21096 -0.55175,-0.21908 -0.96556,-0.60854 -0.41381,-0.39758 -0.641,-0.9331 -0.22719,-0.53552 -0.22719,-1.1684 0,-0.63289 0.22719,-1.1684 0.22719,-0.53552 0.641,-0.92499 0.42192,-0.39758 0.98178,-0.60854 0.55986,-0.21908 1.2252,-0.21908 0.72214,0 1.29823,0.23531 0.5842,0.2353 0.98178,0.68968 l -0.66534,0.64911 q -0.33267,-0.33267 -0.72214,-0.48683 -0.38135,-0.16228 -0.84384,-0.16228 -0.44627,0 -0.82762,0.14605 -0.38136,0.14605 -0.65723,0.41381 -0.27587,0.26776 -0.43003,0.63288 -0.14606,0.36513 -0.14606,0.80328 0,0.43003 0.14606,0.79516 0.15416,0.36513 0.43003,0.641 0.27587,0.26776 0.64911,0.41381 0.37324,0.14605 0.82762,0.14605 0.42192,0 0.81139,-0.12983 0.39758,-0.13793 0.75459,-0.45437 l 0.60043,0.78704 q -0.44626,0.35702 -1.03858,0.54364 -0.5842,0.1785 -1.18463,0.1785 z m 1.2252,-0.86007 v -2.12584 h 0.99801 v 2.26377 z"
         style="fill:#ffffff"
         id="path194" /><path
         d="m -217.29318,132.56511 h 1.05481 v 5.67973 h -1.05481 z m -2.93723,5.67973 h -1.05481 v -5.67973 h 1.05481 z m 3.01837,-2.43417 h -3.10762 v -0.90064 h 3.10762 z"
         style="fill:#ffffff"
         id="path196" /><path
         d="m -213.56079,138.24484 v -4.7872 h -1.88242 v -0.89253 h 4.81966 v 0.89253 h -1.88243 v 4.7872 z"
         style="fill:#ffffff"
         id="path198" /></g><path
       style="fill:#222222;fill-opacity:1;stroke-width:0.0500085"
       d="m -221.56158,126.22408 c -0.0465,-0.0189 -0.0623,-0.24457 -0.0623,-0.88814 0,-0.47461 -0.0148,-1.30075 -0.0326,-1.83603 l -0.0325,-0.9732 -0.30505,0.0365 c -0.16766,0.0203 -0.61996,0.0499 -1.00516,0.0664 -0.385,0.0164 -0.88568,0.0426 -1.11269,0.058 l -0.4124,0.028 v 3.49176 h -1.18679 l -0.0318,-0.23213 c -0.0173,-0.12757 -0.0317,-0.94786 -0.0317,-1.82297 v -1.59107 l -0.18748,-0.0317 c -3.20559,-0.54283 -5.05277,-1.582 -6.27659,-3.53143 -1.60506,-2.55652 0.10772,-5.44324 2.76688,-4.66301 2.47602,0.72634 1.98818,3.92815 -0.60236,3.9529 -1.02008,0.009 -1.04295,0.12097 -0.20112,0.97359 1.08415,1.09814 3.1073,2.04506 4.36932,2.04506 h 0.13173 l -0.0127,-5.40468 -0.0127,-5.4045 -0.70008,-0.26159 c -4.21242,-1.57368 -5.99893,-3.9136 -5.4769,-7.17285 0.39125,-2.442 2.49493,-4.249097 5.86455,-5.038014 l 0.38747,-0.0907 v -1.731901 h 1.20039 v 1.600161 h 2.85025 v -0.74661 c 0,-0.77909 0.0468,-0.953925 0.23569,-0.881535 0.04,0.01531 0.28201,0.02797 0.53792,0.02797 h 0.46533 l 0.0364,0.850159 c 0.02,0.467419 0.0412,0.850159 0.0469,0.850159 0.54585,0 2.55066,0.551907 3.36566,0.926704 3.15021,1.448357 4.04346,5.216057 1.42796,6.023877 -2.69507,0.8324 -4.2387,-2.48281 -1.74001,-3.73669 0.24761,-0.12419 0.51373,-0.27085 0.5916,-0.32586 l 0.14119,-0.1 -0.16632,-0.17199 c -0.32926,-0.3406 -1.15694,-0.808013 -1.84472,-1.04181 -0.36271,-0.12342 -1.7453,-0.44285 -1.77744,-0.41053 -0.0102,0.01 -0.024,2.04942 -0.0315,4.53241 l -0.0134,4.51485 0.67514,0.2695 c 4.12642,1.64722 5.93599,3.81231 5.89025,7.04737 l -0.0162,1.15011 -0.18372,0.533 c -0.853,2.4762 -2.9697,4.27217 -5.91539,5.01874 l -0.45002,0.11417 -0.0133,1.98042 -0.013,1.98043 h -0.47026 c -0.25894,0 -0.50048,0.009 -0.53715,0.021 a 0.22302965,0.22302965 0 0 1 -0.12909,-0.004 z m -0.73072,-4.82576 0.60712,-0.0573 0.034,-1.50508 c 0.0187,-0.82785 0.0154,-2.92016 -0.006,-4.6496 l -0.0409,-3.14471 -0.67515,-0.24892 a 161.56796,161.56795 0 0 0 -1.40471,-0.50881 l -0.72956,-0.25989 -0.0317,2.734 c -0.0393,3.40592 0.007,7.65635 0.0857,7.71418 0.0659,0.0492 1.31495,0.006 2.16226,-0.0737 z m 3.09598,-0.89628 c 3.35508,-1.39677 3.78582,-5.03989 0.82275,-6.95965 -0.54682,-0.3542 -1.84378,-0.98757 -2.02239,-0.98757 -0.039,0 -0.0346,6.98649 0.004,7.75993 l 0.0322,0.63356 0.39655,-0.1463 a 24.193046,24.193046 0 0 0 0.76605,-0.29997 z m -2.46089,-15.28584 c 0.0183,-1.34081 0.0332,-3.28685 0.0332,-4.32488 v -1.886867 l -0.13742,-0.0346 c -0.1928,-0.0488 -2.01747,-0.0484 -2.42572,3.9e-4 l -0.33795,0.0403 0.013,3.879767 0.0128,3.87958 0.50012,0.16974 c 0.46022,0.1563 2.21195,0.70234 2.27961,0.71067 0.0162,0.003 0.0443,-1.09322 0.0623,-2.43424 z m -4.06821,-2.32536 c -0.004,-3.72251 0.004,-3.65314 -0.19204,-3.60439 -3.14415,0.78931 -4.50821,3.49911 -2.6894,5.34251 0.56496,0.57269 2.33162,1.60997 2.84459,1.67046 0.0207,0.004 0.0372,-1.53136 0.0368,-3.40858 z"
       id="path1882" /></g></svg>
