<?xml version="1.0" encoding="UTF-8" standalone="no"?>
<!-- Created with Inkscape (http://www.inkscape.org/) -->

<svg
   width="200"
   height="200"
   viewBox="0 0 52.916668 52.916666"
   version="1.1"
   id="svg8"
   inkscape:version="1.2 (dc2aeda, 2022-05-15)"
   sodipodi:docname="soc_0.svg"
   xml:space="preserve"
   xmlns:inkscape="http://www.inkscape.org/namespaces/inkscape"
   xmlns:sodipodi="http://sodipodi.sourceforge.net/DTD/sodipodi-0.dtd"
   xmlns="http://www.w3.org/2000/svg"
   xmlns:svg="http://www.w3.org/2000/svg"
   xmlns:rdf="http://www.w3.org/1999/02/22-rdf-syntax-ns#"
   xmlns:cc="http://creativecommons.org/ns#"
   xmlns:dc="http://purl.org/dc/elements/1.1/"><defs
     id="defs2"><inkscape:path-effect
       effect="envelope"
       id="path-effect4658"
       is_visible="true"
       yy="true"
       xx="true"
       bendpath1="m -199.08406,108.42369 h 7.0057"
       bendpath2="m -192.07836,108.42369 v 6.75242"
       bendpath3="m -199.08406,115.17611 h 7.0057"
       bendpath4="m -199.08406,108.42369 v 6.75242" /><inkscape:path-effect
       effect="bend_path"
       id="path-effect4656"
       is_visible="true"
       bendpath="m -192.00142,114.60623 c 2.12577,-0.53066 4.48261,0.85111 7.0057,0"
       prop_scale="1"
       scale_y_rel="false"
       vertical="false"
       bendpath-nodetypes="cc" /><inkscape:path-effect
       effect="bounding_box"
       id="path-effect4654"
       is_visible="true"
       linkedpath=""
       visualbounds="false" /></defs><sodipodi:namedview
     id="base"
     pagecolor="#ffffff"
     bordercolor="#666666"
     borderopacity="1.0"
     inkscape:pageopacity="0.0"
     inkscape:pageshadow="2"
     inkscape:zoom="2"
     inkscape:cx="89.25"
     inkscape:cy="97.5"
     inkscape:document-units="px"
     inkscape:current-layer="layer1"
     showgrid="false"
     fit-margin-top="0"
     fit-margin-left="0"
     fit-margin-right="0"
     fit-margin-bottom="0"
     inkscape:window-width="1280"
     inkscape:window-height="456"
     inkscape:window-x="0"
     inkscape:window-y="25"
     inkscape:window-maximized="0"
     showguides="false"
     inkscape:object-nodes="true"
     units="px"
     inkscape:snap-page="true"
     inkscape:showpageshadow="2"
     inkscape:pagecheckerboard="0"
     inkscape:deskcolor="#d1d1d1" /><metadata
     id="metadata5"><rdf:RDF><cc:Work
         rdf:about=""><dc:format>image/svg+xml</dc:format><dc:type
           rdf:resource="http://purl.org/dc/dcmitype/StillImage" /><dc:title /></cc:Work></rdf:RDF></metadata><g
     inkscape:label="Layer 1"
     inkscape:groupmode="layer"
     id="layer1"
     transform="translate(98.048812,-95.14345)"><g
       style="stroke-width:0.5"
       id="g5375"
       transform="matrix(2,0,0,2,-98.048812,95.143449)"><rect
         ry="1.984375"
         rx="1.984375"
         style="opacity:1;fill:#222222;fill-opacity:1;fill-rule:nonzero;stroke:none;stroke-width:0.25;stroke-linecap:butt;stroke-linejoin:round;stroke-miterlimit:4;stroke-dasharray:none;stroke-dashoffset:0;stroke-opacity:0.90944878;paint-order:normal"
         id="rect5363"
         width="26.458334"
         height="26.458334"
         x="0"
         y="-1.110223e-16" /><rect
         ry="1.3229166"
         rx="1.3229166"
         y="1.322917"
         x="1.322917"
         height="23.8125"
         width="23.8125"
         id="rect5365"
         style="opacity:1;fill:#ff60ff;fill-opacity:1;fill-rule:nonzero;stroke:none;stroke-width:0.25;stroke-linecap:butt;stroke-linejoin:round;stroke-miterlimit:4;stroke-dasharray:none;stroke-dashoffset:0;stroke-opacity:0.90944878;paint-order:normal" /><path
         inkscape:connector-curvature="0"
         id="path5369"
         d="m 0.72760492,18.520836 v 4.167188 c 0,1.539081 1.23904398,2.778124 2.77812498,2.778124 H 22.952604 c 1.539081,0 2.778125,-1.239043 2.778125,-2.778124 v -4.167188 z"
         style="opacity:1;fill:#222222;fill-opacity:1;fill-rule:nonzero;stroke:none;stroke-width:0.24999997;stroke-linecap:butt;stroke-linejoin:round;stroke-miterlimit:4;stroke-dasharray:none;stroke-dashoffset:0;stroke-opacity:0.90944878;paint-order:normal" /></g><g
       aria-label="LIBERATION"
       transform="matrix(0.98742088,0,0,1.0127394,-0.26455787,5.3357397e-7)"
       id="text1588"
       style="font-weight:600;font-size:8.01183px;font-family:Montserrat;-inkscape-font-specification:'Montserrat Semi-Bold';fill:#ff60ff;stroke-width:1.61147"><path
         d="m -94.575472,140.18443 v -5.60828 h 1.041538 v 4.72698 h 2.93233 v 0.8813 z"
         style="fill:#ffffff"
         id="path1694" /><path
         d="m -90.04437,140.18443 v -5.60828 h 1.041538 v 5.60828 z"
         style="fill:#ffffff"
         id="path1696" /><path
         d="m -88.292487,140.18443 v -5.60828 h 2.62788 q 1.009491,0 1.538271,0.40059 0.528781,0.39258 0.528781,1.05756 0,0.44867 -0.208307,0.76914 -0.208308,0.31246 -0.560828,0.48872 -0.344509,0.16825 -0.753112,0.16825 l 0.144212,-0.28843 q 0.472698,0 0.849254,0.17627 0.376556,0.16824 0.592876,0.49673 0.224331,0.32848 0.224331,0.81721 0,0.72106 -0.552816,1.12165 -0.552816,0.40059 -1.642425,0.40059 z m 1.041538,-0.8172 h 1.682484 q 0.584864,0 0.897325,-0.19229 0.312461,-0.19228 0.312461,-0.61691 0,-0.41661 -0.312461,-0.6089 -0.312461,-0.20029 -0.897325,-0.20029 h -1.762603 v -0.8092 h 1.554295 q 0.544805,0 0.833231,-0.19228 0.296438,-0.19229 0.296438,-0.57685 0,-0.39258 -0.296438,-0.58487 -0.288426,-0.19228 -0.833231,-0.19228 h -1.474176 z"
         style="fill:#ffffff"
         id="path1698" /><path
         d="m -81.769953,136.90759 h 2.788117 v 0.85727 h -2.788117 z m 0.08012,2.40355 h 3.164673 v 0.87329 h -4.206211 v -5.60828 h 4.094045 v 0.87329 h -3.052507 z"
         style="fill:#ffffff"
         id="path1700" /><path
         d="m -78.033334,140.18443 v -5.60828 h 2.307407 q 0.7451,0 1.273881,0.24036 0.536793,0.24035 0.825219,0.68901 0.288426,0.44867 0.288426,1.06558 0,0.61691 -0.288426,1.06557 -0.288426,0.44065 -0.825219,0.68101 -0.528781,0.23234 -1.273881,0.23234 h -1.730555 l 0.464686,-0.4727 v 2.10711 z m 3.669418,0 -1.418094,-2.035 h 1.113645 l 1.426106,2.035 z m -2.62788,-1.99494 -0.464686,-0.49674 h 1.682484 q 0.689018,0 1.033526,-0.29643 0.352521,-0.29644 0.352521,-0.82522 0,-0.5368 -0.352521,-0.82522 -0.344508,-0.28843 -1.033526,-0.28843 h -1.682484 l 0.464686,-0.51275 z"
         style="fill:#ffffff"
         id="path1702" /><path
         d="m -73.103785,140.18443 2.523726,-5.60828 h 1.025515 l 2.531738,5.60828 h -1.089609 l -2.171206,-5.05546 h 0.416615 l -2.163194,5.05546 z m 1.161715,-1.29791 0.280414,-0.81721 h 3.028472 l 0.280414,0.81721 z"
         style="fill:#ffffff"
         id="path1704" /><path
         d="m -66.524495,140.18443 v -4.72698 h -1.858745 v -0.8813 h 4.759027 v 0.8813 h -1.858744 v 4.72698 z"
         style="fill:#ffffff"
         id="path1706" /><path
         d="m -63.106958,140.18443 v -5.60828 h 1.041538 v 5.60828 z"
         style="fill:#ffffff"
         id="path1708" /><path
         d="m -58.459241,140.26455 q -0.65697,0 -1.209786,-0.21632 -0.552817,-0.21632 -0.96142,-0.60089 -0.408603,-0.39258 -0.632935,-0.91334 -0.224331,-0.52878 -0.224331,-1.15371 0,-0.62492 0.224331,-1.14569 0.224332,-0.52878 0.632935,-0.91335 0.408603,-0.39258 0.96142,-0.6089 0.552816,-0.21632 1.201774,-0.21632 0.65697,0 1.201775,0.21632 0.552816,0.21632 0.961419,0.6089 0.408604,0.38457 0.632935,0.91335 0.224331,0.52077 0.224331,1.14569 0,0.62493 -0.224331,1.15371 -0.224331,0.52878 -0.632935,0.91334 -0.408603,0.38457 -0.961419,0.60089 -0.544805,0.21632 -1.193763,0.21632 z m -0.008,-0.91335 q 0.424627,0 0.785159,-0.14421 0.360533,-0.14421 0.624923,-0.4086 0.264391,-0.27241 0.408604,-0.62493 0.152224,-0.36053 0.152224,-0.79317 0,-0.43264 -0.152224,-0.78516 -0.144213,-0.36053 -0.408604,-0.62492 -0.26439,-0.2724 -0.624923,-0.41661 -0.360532,-0.14422 -0.785159,-0.14422 -0.424627,0 -0.785159,0.14422 -0.352521,0.14421 -0.624923,0.41661 -0.26439,0.26439 -0.416615,0.62492 -0.144213,0.35252 -0.144213,0.78516 0,0.42463 0.144213,0.78516 0.152225,0.36053 0.416615,0.63294 0.26439,0.26439 0.624923,0.4086 0.360532,0.14421 0.785159,0.14421 z"
         style="fill:#ffffff"
         id="path1710" /><path
         d="m -54.877021,140.18443 v -5.60828 h 0.857266 l 3.517193,4.31838 h -0.424627 v -4.31838 h 1.033526 v 5.60828 h -0.857265 l -3.517194,-4.31837 h 0.424627 v 4.31837 z"
         style="fill:#ffffff"
         id="path1712" /></g><path
       style="fill:#222222;fill-opacity:1;stroke-width:0.0493189"
       d="m -77.582385,133.93491 c 0.0014,-0.33886 0.633863,-5.23335 0.912906,-7.06473 0.147071,-0.96576 0.267301,-2.19994 0.269818,-2.76696 5.77e-4,-0.14401 -0.07549,-0.28352 -0.402071,-0.73984 -1.419828,-1.98238 -4.662666,-6.66659 -5.505951,-7.9536 -0.870132,-1.32784 -1.045437,-1.72655 -1.045437,-2.37775 v -0.35621 l 0.557809,-0.78151 a 606.77052,606.77052 0 0 1 1.321963,-1.84201 c 0.420525,-0.58326 1.314972,-1.82582 1.987981,-2.76193 0.673007,-0.93583 1.291769,-1.77352 1.375651,-1.86159 0.227597,-0.24046 0.416328,-0.22088 1.272473,0.1314 1.732705,0.71356 3.774092,1.65638 5.542864,2.56061 1.185519,0.60591 1.233331,0.6361 1.248149,0.78373 0.01816,0.18539 -0.277925,2.17309 -0.341675,2.29275 -0.129178,0.24241 -1.956386,0.52621 -3.495884,0.54299 -0.606179,0.005 -0.745143,-0.005 -0.912345,-0.0845 -0.114078,-0.053 -0.495738,-0.39034 -0.904519,-0.79856 -0.389208,-0.38866 -0.727527,-0.69397 -0.752133,-0.67886 -0.117434,0.0725 -0.04026,0.43422 0.176989,0.83321 0.185936,0.34055 0.222005,0.45072 0.222005,0.67468 0,0.43115 -0.117993,0.53852 -0.692298,0.63107 -0.305607,0.0493 -0.551378,0.18453 -0.64197,0.35398 -0.04586,0.0853 -0.02517,0.10846 0.17587,0.1974 0.125263,0.0553 0.520064,0.17474 0.877955,0.26506 1.198661,0.30281 1.781634,0.54495 2.15882,0.89696 0.517267,0.48205 1.251227,1.70642 3.573614,5.9592 1.018875,1.86551 1.104712,2.04697 1.106111,2.33273 0.0014,0.26032 2.8e-4,0.26199 -0.414652,0.69986 -0.228715,0.24157 -0.442335,0.48819 -0.474488,0.548 l -0.05842,0.10901 0.420243,-0.0293 c 0.401792,-0.0285 0.421364,-0.0252 0.452959,0.0782 0.07102,0.23404 0.08611,1.30298 0.02963,2.13897 -0.103455,1.54174 -0.596953,6.62605 -0.770867,7.94412 l -0.02739,0.20969 h -3.621985 c -3.416755,0 -3.621984,-0.005 -3.621705,-0.0865 z m 7.711187,-0.19711 c 0.01706,-0.15603 0.186776,-1.92591 0.376626,-3.9332 0.378584,-4.00056 0.53041,-5.53782 0.570391,-5.78276 l 0.02602,-0.16021 0.454077,-0.003 c 0.575426,-0.003 0.616805,-0.0244 0.487909,-0.27624 -0.118273,-0.23096 -4.582983,-7.69273 -4.792128,-8.0087 -0.230392,-0.34838 -0.395637,-0.80384 -0.395637,-1.09072 v -0.25444 l 0.554732,0.0265 c 1.013283,0.0489 2.032159,0.38277 3.736064,1.22328 1.300436,0.64168 1.529431,0.82901 2.624358,2.14595 0.626593,0.75409 0.873484,0.79015 1.55264,0.22788 0.436182,-0.36126 1.526634,-1.19391 1.970925,-1.50512 0.697052,-0.48847 1.201736,-0.65707 1.274993,-0.42667 0.07102,0.22396 -0.168321,2.38976 -0.37355,3.37705 -0.487909,2.34867 -1.41815,4.24409 -2.745988,5.59403 l -0.506081,0.51448 v 8.61317 h -4.846931 z m 3.464009,-16.78909 c -1.154762,-1.07002 -1.135749,-1.02698 -0.67664,-1.55627 0.159374,-0.18396 0.983647,-1.04433 1.831962,-1.91192 0.848317,-0.8679 1.785549,-1.84427 2.082769,-2.17 0.870685,-0.95458 0.880751,-0.96241 1.251505,-0.96241 0.290786,0 0.328533,0.0132 0.508597,0.17588 0.232073,0.20971 0.82623,0.97637 1.264929,1.63261 0.304208,0.45519 0.31623,0.48483 0.31623,0.78009 0,0.25305 -0.02377,0.34111 -0.135608,0.50608 -0.173354,0.255 -0.200476,0.27875 -2.888583,2.51893 -1.979595,1.64967 -2.280168,1.88287 -2.424165,1.88287 -0.145113,0 -0.279602,-0.10626 -1.130996,-0.89586 z m -3.111987,-2.06235 -1.578083,-0.73256 -0.01313,-0.16441 c -0.01174,-0.14593 0.122187,-0.34475 1.208168,-1.7931 0.671887,-0.89582 1.802604,-2.40486 2.512797,-3.35355 1.401093,-1.87168 1.569415,-2.07438 1.762621,-2.12276 0.188731,-0.0476 0.432545,0.0125 0.624074,0.15378 0.257794,0.19013 2.058442,1.89515 2.23012,2.11157 0.114078,0.144 0.156577,0.25556 0.172794,0.45408 0.04753,0.5715 0.09032,0.50833 -1.666717,2.46248 -1.554876,1.72905 -2.044182,2.27513 -2.712435,3.02753 -0.574306,0.64645 -0.628548,0.69399 -0.789319,0.69202 -0.115477,-0.004 -0.693418,-0.24409 -1.7506,-0.73508 z m -3.501476,-1.27976 c -0.298337,-0.0771 -0.719979,-0.21164 -0.936951,-0.29916 a 24.58694,24.58694 0 0 0 -0.887743,-0.3302 c -0.271215,-0.0945 -0.566476,-0.22732 -0.656228,-0.29527 -0.148751,-0.11268 -0.161332,-0.14316 -0.147912,-0.35314 l 0.01482,-0.22982 0.962956,0.0155 c 0.879354,0.0141 1.054664,0.004 2.022093,-0.14401 0.582414,-0.0876 1.286736,-0.1686 1.564662,-0.18007 l 0.505523,-0.0209 v 0.19685 c 0,0.30672 -0.468057,1.1226 -0.903677,1.57529 l -0.201877,0.2097 -0.396477,-0.004 c -0.269538,-0.004 -0.57039,-0.0472 -0.939188,-0.14261 z m 2.900887,-2.94896 c 0.01677,-0.23683 0.06906,-0.82847 0.116035,-1.31469 l 0.08584,-0.88439 -0.115477,-0.0782 c -0.06348,-0.0433 -0.262269,-0.15883 -0.441773,-0.25668 -1.662244,-0.90676 -1.781074,-0.98478 -1.781074,-1.17155 0,-0.0962 0.336083,-0.63749 1.13575,-1.82973 1.491126,-2.22256 1.366422,-2.07326 1.732144,-2.07326 h 0.294702 l 0.823153,0.78401 a 79.395108,79.395108 0 0 1 1.451699,1.42235 l 0.628831,0.63778 v 0.27429 c 0,0.31734 0.143995,0.11045 -1.670633,2.4004 a 553.82006,553.82006 0 0 0 -1.5518,1.96532 c -0.385293,0.49323 -0.45044,0.55474 -0.585768,0.55474 h -0.152104 z m -4.208034,-4.37497 c -2.633866,-0.93302 -2.805263,-1.08597 -2.289394,-2.03998 0.324899,-0.60115 1.383199,-2.03327 2.457716,-3.32589 l 0.398993,-0.48007 0.372432,-8.1e-4 0.372153,-8e-4 0.575983,0.38921 c 0.949814,0.6417 1.787506,1.33035 1.962259,1.61331 0.20355,0.3291 0.09926,0.63415 -0.548023,1.6038 -0.397598,0.59558 -1.278628,1.82973 -1.676503,2.34896 -0.185936,0.24214 -0.21194,0.25864 -0.406545,0.25472 -0.123025,-0.004 -0.619041,-0.14986 -1.219071,-0.36236 z"
       id="path1715" /></g></svg>
