<?xml version="1.0" encoding="UTF-8" standalone="no"?>
<!-- Created with Inkscape (http://www.inkscape.org/) -->

<svg
   width="200"
   height="200"
   viewBox="0 0 52.916668 52.916666"
   version="1.1"
   id="svg8"
   inkscape:version="1.2 (dc2aeda, 2022-05-15)"
   sodipodi:docname="vis_0.svg"
   xml:space="preserve"
   xmlns:inkscape="http://www.inkscape.org/namespaces/inkscape"
   xmlns:sodipodi="http://sodipodi.sourceforge.net/DTD/sodipodi-0.dtd"
   xmlns="http://www.w3.org/2000/svg"
   xmlns:svg="http://www.w3.org/2000/svg"
   xmlns:rdf="http://www.w3.org/1999/02/22-rdf-syntax-ns#"
   xmlns:cc="http://creativecommons.org/ns#"
   xmlns:dc="http://purl.org/dc/elements/1.1/"><defs
     id="defs2"><inkscape:path-effect
       effect="envelope"
       id="path-effect4658"
       is_visible="true"
       yy="true"
       xx="true"
       bendpath1="m -199.08406,108.42369 h 7.0057"
       bendpath2="m -192.07836,108.42369 v 6.75242"
       bendpath3="m -199.08406,115.17611 h 7.0057"
       bendpath4="m -199.08406,108.42369 v 6.75242" /><inkscape:path-effect
       effect="bend_path"
       id="path-effect4656"
       is_visible="true"
       bendpath="m -192.00142,114.60623 c 2.12577,-0.53066 4.48261,0.85111 7.0057,0"
       prop_scale="1"
       scale_y_rel="false"
       vertical="false"
       bendpath-nodetypes="cc" /><inkscape:path-effect
       effect="bounding_box"
       id="path-effect4654"
       is_visible="true"
       linkedpath=""
       visualbounds="false" /></defs><sodipodi:namedview
     id="base"
     pagecolor="#ffffff"
     bordercolor="#666666"
     borderopacity="1.0"
     inkscape:pageopacity="0.0"
     inkscape:pageshadow="2"
     inkscape:zoom="2"
     inkscape:cx="77.75"
     inkscape:cy="102.25"
     inkscape:document-units="px"
     inkscape:current-layer="g5146"
     showgrid="false"
     fit-margin-top="0"
     fit-margin-left="0"
     fit-margin-right="0"
     fit-margin-bottom="0"
     inkscape:window-width="1280"
     inkscape:window-height="635"
     inkscape:window-x="0"
     inkscape:window-y="25"
     inkscape:window-maximized="0"
     showguides="false"
     inkscape:object-nodes="true"
     units="px"
     inkscape:snap-page="true"
     inkscape:showpageshadow="2"
     inkscape:pagecheckerboard="0"
     inkscape:deskcolor="#d1d1d1" /><metadata
     id="metadata5"><rdf:RDF><cc:Work
         rdf:about=""><dc:format>image/svg+xml</dc:format><dc:type
           rdf:resource="http://purl.org/dc/dcmitype/StillImage" /><dc:title /></cc:Work></rdf:RDF></metadata><g
     inkscape:label="Layer 1"
     inkscape:groupmode="layer"
     id="layer1"
     transform="translate(98.048812,-95.14345)"><g
       style="stroke-width:0.5"
       id="g5146"
       transform="matrix(2,0,0,2,-98.048813,95.143449)"><rect
         ry="1.984375"
         rx="1.984375"
         style="opacity:1;fill:#222222;fill-opacity:1;fill-rule:nonzero;stroke:none;stroke-width:0.25;stroke-linecap:butt;stroke-linejoin:round;stroke-miterlimit:4;stroke-dasharray:none;stroke-dashoffset:0;stroke-opacity:0.90944878;paint-order:normal"
         id="rect5134"
         width="26.458334"
         height="26.458334"
         x="0"
         y="-1.110223e-16" /><rect
         ry="1.3229166"
         rx="1.3229166"
         y="1.322917"
         x="1.322917"
         height="23.8125"
         width="23.8125"
         id="rect5136"
         style="opacity:1;fill:#c060ff;fill-opacity:1;fill-rule:nonzero;stroke:none;stroke-width:0.25;stroke-linecap:butt;stroke-linejoin:round;stroke-miterlimit:4;stroke-dasharray:none;stroke-dashoffset:0;stroke-opacity:0.90944878;paint-order:normal" /><path
         style="opacity:1;fill:#222222;fill-opacity:1;fill-rule:nonzero;stroke:none;stroke-width:0.25;stroke-linecap:butt;stroke-linejoin:round;stroke-miterlimit:4;stroke-dasharray:none;stroke-dashoffset:0;stroke-opacity:0.90944878;paint-order:normal"
         d="m 0.7276035,18.520835 v 4.167188 c 0,1.539081 1.2390438,2.778125 2.778125,2.778125 H 22.952604 c 1.539081,0 2.778125,-1.239044 2.778125,-2.778125 v -4.167188 z"
         id="rect5205"
         inkscape:connector-curvature="0" /><g
         aria-label="VOCALIZED"
         id="text432"
         style="font-weight:600;font-size:4.05695px;font-family:Montserrat;-inkscape-font-specification:'Montserrat Semi-Bold';fill:#ffffff;stroke-width:0.816"
         transform="translate(0.06616485,0.1865465)"><path
           d="M 2.7315605,23.226877 1.4901338,20.387012 h 0.57203 l 1.1075473,2.56805 H 2.8410982 l 1.1197182,-2.56805 h 0.5274035 l -1.2373698,2.839865 z"
           id="path486" /><path
           d="m 5.9584193,23.267447 q -0.3326699,0 -0.6125995,-0.109538 -0.2799295,-0.109538 -0.486834,-0.304271 -0.2069044,-0.198791 -0.320499,-0.462493 -0.1135946,-0.267758 -0.1135946,-0.5842 0,-0.316442 0.1135946,-0.580144 0.1135946,-0.267759 0.320499,-0.462492 0.2069045,-0.198791 0.486834,-0.308329 0.2799296,-0.109537 0.6085426,-0.109537 0.3326699,0 0.6085425,0.109537 0.2799295,0.109538 0.486834,0.308329 0.2069044,0.194733 0.320499,0.462492 0.1135946,0.263702 0.1135946,0.580144 0,0.316442 -0.1135946,0.5842 -0.1135946,0.267759 -0.320499,0.462493 -0.2069045,0.194733 -0.486834,0.304271 -0.2758726,0.109538 -0.6044856,0.109538 z m -0.00406,-0.462493 q 0.2150183,0 0.3975811,-0.07302 0.1825627,-0.07303 0.3164421,-0.206904 0.1338793,-0.137936 0.2069044,-0.316442 0.077082,-0.182563 0.077082,-0.401638 0,-0.219076 -0.077082,-0.397581 Q 6.8022649,21.226801 6.6683856,21.092921 6.5345062,20.954985 6.3519435,20.88196 6.1693807,20.80894 5.9543624,20.80894 q -0.2150184,0 -0.3975812,0.07302 -0.1785058,0.07303 -0.3164421,0.210961 -0.1338793,0.13388 -0.2109614,0.316443 -0.073025,0.178505 -0.073025,0.397581 0,0.215018 0.073025,0.397581 0.077082,0.182563 0.2109614,0.320499 0.1338794,0.133879 0.3164421,0.206904 0.1825628,0.07302 0.3975812,0.07302 z"
           id="path488" /><path
           d="m 9.225803,23.267447 q -0.324556,0 -0.6044856,-0.105481 -0.2758726,-0.109538 -0.482777,-0.304271 -0.2028475,-0.198791 -0.3164421,-0.46655 -0.1135946,-0.267758 -0.1135946,-0.5842 0,-0.316442 0.1135946,-0.584201 0.1135946,-0.267759 0.320499,-0.462492 0.2069045,-0.198791 0.4827771,-0.304272 0.2758726,-0.109537 0.6044855,-0.109537 0.3488978,0 0.6369412,0.121708 0.2880439,0.117652 0.4868339,0.352955 l -0.340784,0.320499 Q 9.8586872,20.97527 9.6680106,20.894131 q -0.1906767,-0.0852 -0.413809,-0.0852 -0.2231322,0 -0.4097519,0.07302 -0.1825628,0.07303 -0.3204991,0.206905 -0.1338793,0.133879 -0.2109614,0.316442 -0.073025,0.182562 -0.073025,0.401638 0,0.219075 0.073025,0.401638 0.077082,0.182562 0.2109614,0.316442 0.1379363,0.133879 0.3204991,0.206904 0.1866197,0.07302 0.4097519,0.07302 0.2231323,0 0.413809,-0.08114 0.1906766,-0.0852 0.3448404,-0.255587 l 0.340784,0.324556 q -0.19879,0.231261 -0.4868339,0.352969 -0.2880434,0.121709 -0.6409981,0.121709 z"
           id="path490" /><path
           d="m 10.265966,23.226877 1.277939,-2.839865 h 0.51929 l 1.281996,2.839865 h -0.551745 l -1.099434,-2.559935 h 0.210962 l -1.095377,2.559935 z m 0.588257,-0.657226 0.141994,-0.413809 h 1.533527 l 0.141993,0.413809 z"
           id="path492" /><path
           d="m 13.574005,23.226877 v -2.839865 h 0.527404 v 2.393601 h 1.484844 v 0.446264 z"
           id="path494" /><path
           d="m 15.871826,23.226877 v -2.839865 h 0.527404 v 2.839865 z"
           id="path496" /><path
           d="m 16.818637,23.226877 v -0.352954 l 1.833741,-2.239437 0.06086,0.198791 H 16.84704 v -0.446265 h 2.340861 v 0.352955 l -1.833742,2.239436 -0.06491,-0.19879 h 1.951393 v 0.446264 z"
           id="path498" /><path
           d="m 20.078039,21.567585 h 1.411818 v 0.434093 h -1.411818 z m 0.04057,1.217085 h 1.602496 v 0.442207 h -2.129899 v -2.839865 h 2.073101 v 0.442208 h -1.545698 z"
           id="path500" /><path
           d="m 22.044687,23.226938 v -2.839865 h 1.241427 q 0.462492,0 0.81139,0.178506 0.348897,0.178506 0.543631,0.494948 0.194734,0.316442 0.194734,0.746479 0,0.425979 -0.194734,0.746478 -0.194734,0.316443 -0.543631,0.494948 -0.348898,0.178506 -0.81139,0.178506 z m 0.527404,-0.446264 h 0.689681 q 0.320499,0 0.551745,-0.121709 0.235303,-0.121708 0.361069,-0.340784 0.129822,-0.219075 0.129822,-0.511175 0,-0.296158 -0.129822,-0.511176 -0.125766,-0.219075 -0.361069,-0.340784 -0.231246,-0.121708 -0.551745,-0.121708 h -0.689681 z"
           id="path502" /></g></g><g
       id="g376"
       transform="matrix(0.52308307,0,0,0.52308307,-91.505601,94.970286)"><path
         d="M 39.389,13.769 22.235,28.606 H 6 v 19.093 h 15.989 l 17.4,15.051 V 13.769 Z"
         style="fill:#222222;stroke:#222222;stroke-width:5;stroke-linejoin:round"
         id="path364" /><path
         d="M 48,27.6 A 19.5,19.5 0 0 1 48,49 m 7.1,-28.5 a 30,30 0 0 1 0,35.6 M 61.6,14 a 38.8,38.8 0 0 1 0,48.6"
         style="fill:none;stroke:#222222;stroke-width:5;stroke-linecap:round"
         id="path366" /></g></g></svg>
