<?xml version="1.0" encoding="UTF-8" standalone="no"?>
<!-- Created with Inkscape (http://www.inkscape.org/) -->

<svg
   width="200"
   height="200"
   viewBox="0 0 52.916668 52.916666"
   version="1.1"
   id="svg8"
   inkscape:version="1.2 (dc2aeda, 2022-05-15)"
   sodipodi:docname="vis_1.svg"
   xml:space="preserve"
   xmlns:inkscape="http://www.inkscape.org/namespaces/inkscape"
   xmlns:sodipodi="http://sodipodi.sourceforge.net/DTD/sodipodi-0.dtd"
   xmlns="http://www.w3.org/2000/svg"
   xmlns:svg="http://www.w3.org/2000/svg"
   xmlns:rdf="http://www.w3.org/1999/02/22-rdf-syntax-ns#"
   xmlns:cc="http://creativecommons.org/ns#"
   xmlns:dc="http://purl.org/dc/elements/1.1/"><defs
     id="defs2"><inkscape:path-effect
       effect="envelope"
       id="path-effect4658"
       is_visible="true"
       yy="true"
       xx="true"
       bendpath1="m -199.08406,108.42369 h 7.0057"
       bendpath2="m -192.07836,108.42369 v 6.75242"
       bendpath3="m -199.08406,115.17611 h 7.0057"
       bendpath4="m -199.08406,108.42369 v 6.75242" /><inkscape:path-effect
       effect="bend_path"
       id="path-effect4656"
       is_visible="true"
       bendpath="m -192.00142,114.60623 c 2.12577,-0.53066 4.48261,0.85111 7.0057,0"
       prop_scale="1"
       scale_y_rel="false"
       vertical="false"
       bendpath-nodetypes="cc" /><inkscape:path-effect
       effect="bounding_box"
       id="path-effect4654"
       is_visible="true"
       linkedpath=""
       visualbounds="false" /></defs><sodipodi:namedview
     id="base"
     pagecolor="#ffffff"
     bordercolor="#666666"
     borderopacity="1.0"
     inkscape:pageopacity="0.0"
     inkscape:pageshadow="2"
     inkscape:zoom="2"
     inkscape:cx="108.75"
     inkscape:cy="94"
     inkscape:document-units="px"
     inkscape:current-layer="layer1"
     showgrid="false"
     fit-margin-top="0"
     fit-margin-left="0"
     fit-margin-right="0"
     fit-margin-bottom="0"
     inkscape:window-width="1280"
     inkscape:window-height="568"
     inkscape:window-x="0"
     inkscape:window-y="25"
     inkscape:window-maximized="0"
     showguides="false"
     inkscape:object-nodes="true"
     units="px"
     inkscape:snap-page="true"
     inkscape:showpageshadow="2"
     inkscape:pagecheckerboard="0"
     inkscape:deskcolor="#d1d1d1" /><metadata
     id="metadata5"><rdf:RDF><cc:Work
         rdf:about=""><dc:format>image/svg+xml</dc:format><dc:type
           rdf:resource="http://purl.org/dc/dcmitype/StillImage" /><dc:title /></cc:Work></rdf:RDF></metadata><g
     inkscape:label="Layer 1"
     inkscape:groupmode="layer"
     id="layer1"
     transform="translate(98.048812,-95.14345)"><g
       style="stroke-width:0.5"
       transform="matrix(2,0,0,2,-98.048812,95.143449)"
       id="g5175"><rect
         y="-1.110223e-16"
         x="0"
         height="26.458334"
         width="26.458334"
         id="rect5163"
         style="opacity:1;fill:#222222;fill-opacity:1;fill-rule:nonzero;stroke:none;stroke-width:0.25;stroke-linecap:butt;stroke-linejoin:round;stroke-miterlimit:4;stroke-dasharray:none;stroke-dashoffset:0;stroke-opacity:0.90944878;paint-order:normal"
         rx="1.984375"
         ry="1.984375" /><rect
         style="opacity:1;fill:#60c040;fill-opacity:1;fill-rule:nonzero;stroke:none;stroke-width:0.25;stroke-linecap:butt;stroke-linejoin:round;stroke-miterlimit:4;stroke-dasharray:none;stroke-dashoffset:0;stroke-opacity:0.90944878;paint-order:normal"
         id="rect5165"
         width="23.8125"
         height="23.8125"
         x="1.322917"
         y="1.322917"
         rx="1.3229166"
         ry="1.3229166" /><path
         style="opacity:1;fill:#222222;fill-opacity:1;fill-rule:nonzero;stroke:none;stroke-width:0.24999997;stroke-linecap:butt;stroke-linejoin:round;stroke-miterlimit:4;stroke-dasharray:none;stroke-dashoffset:0;stroke-opacity:0.90944878;paint-order:normal"
         d="m 0.72760492,18.520836 v 4.167188 c 0,1.539081 1.23904398,2.778124 2.77812498,2.778124 H 22.952604 c 1.539081,0 2.778125,-1.239043 2.778125,-2.778124 v -4.167188 z"
         id="rect5205-3-6"
         inkscape:connector-curvature="0" /></g><g
       style="stroke:#222222;stroke-width:5"
       id="g1978"
       transform="matrix(0.5229,0,0,0.5229,-91.199228,94.851556)"><path
         d="M 39,14 22,29 H 6 v 19 h 16 l 17,15 z"
         fill="#222222"
         stroke-linejoin="round"
         id="path1966" /><path
         d="M 49,26 69,50 M 69,26 49,50"
         fill="none"
         stroke-linecap="round"
         id="path1968" /></g><g
       aria-label="LOW PROFILE"
       transform="matrix(0.92195444,0,0,1.0846523,0.26458257,-5.4766775e-6)"
       id="text2539"
       style="font-weight:600;font-size:7.48065px;font-family:Montserrat;-inkscape-font-specification:'Montserrat Semi-Bold';fill:#60c040;stroke-width:1.50463"><path
         d="m -102.26657,130.89015 v -5.23645 h 0.97249 v 4.41358 h 2.737925 v 0.82287 z"
         style="fill:#fdfefd"
         id="path2693" /><path
         d="m -96.003142,130.96496 q -0.613414,0 -1.129578,-0.20198 -0.516165,-0.20198 -0.897678,-0.56105 -0.381512,-0.36655 -0.590972,-0.85279 -0.20946,-0.49372 -0.20946,-1.07722 0,-0.58349 0.20946,-1.06973 0.20946,-0.49372 0.590972,-0.85279 0.381513,-0.36655 0.897678,-0.56853 0.516164,-0.20198 1.122097,-0.20198 0.613413,0 1.122098,0.20198 0.516164,0.20198 0.897678,0.56853 0.381513,0.35907 0.590971,0.85279 0.209458,0.48624 0.209458,1.06973 0,0.5835 -0.209458,1.07722 -0.209458,0.49372 -0.590971,0.85279 -0.381514,0.35907 -0.897678,0.56105 -0.508685,0.20198 -1.114617,0.20198 z m -0.0075,-0.8528 q 0.396475,0 0.733104,-0.13465 0.336629,-0.13465 0.583491,-0.38151 0.246861,-0.25434 0.381513,-0.58349 0.142132,-0.33663 0.142132,-0.74059 0,-0.40395 -0.142132,-0.7331 -0.134652,-0.33663 -0.381513,-0.58349 -0.246862,-0.25434 -0.583491,-0.38899 -0.336629,-0.13466 -0.733104,-0.13466 -0.396474,0 -0.733104,0.13466 -0.329148,0.13465 -0.58349,0.38899 -0.246862,0.24686 -0.388994,0.58349 -0.134652,0.32915 -0.134652,0.7331 0,0.39648 0.134652,0.73311 0.142132,0.33663 0.388994,0.59097 0.246861,0.24686 0.58349,0.38151 0.33663,0.13465 0.733104,0.13465 z"
         style="fill:#fdfefd"
         id="path2695" /><path
         d="m -91.662483,130.89015 -1.735511,-5.23645 h 1.009888 l 1.548494,4.73525 h -0.501203 l 1.60834,-4.73525 h 0.897678 l 1.563456,4.73525 h -0.486243 l 1.585898,-4.73525 h 0.927601 l -1.735511,5.23645 h -1.03233 l -1.428804,-4.27145 h 0.269303 l -1.451246,4.27145 z"
         style="fill:#fdfefd"
         id="path2697" /><path
         d="m -82.848001,130.89015 v -5.23645 h 2.154427 q 0.6957,0 1.189423,0.22442 0.501204,0.22442 0.770507,0.64333 0.269304,0.41892 0.269304,0.99493 0,0.57601 -0.269304,0.99493 -0.269303,0.41891 -0.770507,0.64333 -0.493723,0.22442 -1.189423,0.22442 h -1.61582 l 0.433877,-0.45632 v 1.96741 z m 0.972484,-1.86268 -0.433877,-0.47128 h 1.570936 q 0.643336,0 0.965004,-0.2693 0.329149,-0.27679 0.329149,-0.77051 0,-0.5012 -0.329149,-0.77051 -0.321668,-0.2693 -0.965004,-0.2693 h -1.570936 l 0.433877,-0.47876 z"
         style="fill:#fdfefd"
         id="path2699" /><path
         d="m -78.065957,130.89015 v -5.23645 h 2.154427 q 0.6957,0 1.189423,0.22442 0.501204,0.22442 0.770507,0.64333 0.269304,0.41892 0.269304,0.99493 0,0.57601 -0.269304,0.99493 -0.269303,0.41143 -0.770507,0.63585 -0.493723,0.21694 -1.189423,0.21694 h -1.61582 l 0.433877,-0.44136 v 1.96741 z m 3.426137,0 -1.324075,-1.90008 h 1.039811 l 1.331555,1.90008 z m -2.453653,-1.86268 -0.433877,-0.4638 h 1.570936 q 0.643336,0 0.965004,-0.27678 0.329148,-0.27679 0.329148,-0.77051 0,-0.5012 -0.329148,-0.77051 -0.321668,-0.2693 -0.965004,-0.2693 h -1.570936 l 0.433877,-0.47876 z"
         style="fill:#fdfefd"
         id="path2701" /><path
         d="m -70.71783,130.96496 q -0.613413,0 -1.129578,-0.20198 -0.516164,-0.20198 -0.897678,-0.56105 -0.381513,-0.36655 -0.590971,-0.85279 -0.209458,-0.49372 -0.209458,-1.07722 0,-0.58349 0.209458,-1.06973 0.209458,-0.49372 0.590971,-0.85279 0.381514,-0.36655 0.897678,-0.56853 0.516165,-0.20198 1.122098,-0.20198 0.613413,0 1.122097,0.20198 0.516165,0.20198 0.897678,0.56853 0.381513,0.35907 0.590972,0.85279 0.209458,0.48624 0.209458,1.06973 0,0.5835 -0.209458,1.07722 -0.209459,0.49372 -0.590972,0.85279 -0.381513,0.35907 -0.897678,0.56105 -0.508684,0.20198 -1.114617,0.20198 z m -0.0075,-0.8528 q 0.396474,0 0.733104,-0.13465 0.336629,-0.13465 0.58349,-0.38151 0.246862,-0.25434 0.381513,-0.58349 0.142133,-0.33663 0.142133,-0.74059 0,-0.40395 -0.142133,-0.7331 -0.134651,-0.33663 -0.381513,-0.58349 -0.246861,-0.25434 -0.58349,-0.38899 -0.33663,-0.13466 -0.733104,-0.13466 -0.396475,0 -0.733104,0.13466 -0.329148,0.13465 -0.583491,0.38899 -0.246861,0.24686 -0.388993,0.58349 -0.134652,0.32915 -0.134652,0.7331 0,0.39648 0.134652,0.73311 0.142132,0.33663 0.388993,0.59097 0.246862,0.24686 0.583491,0.38151 0.336629,0.13465 0.733104,0.13465 z"
         style="fill:#fdfefd"
         id="path2703" /><path
         d="m -66.556689,128.06247 h 2.610747 v 0.82287 h -2.610747 z m 0.08229,2.82768 h -0.972484 v -5.23645 h 3.822612 v 0.81539 h -2.850128 z"
         style="fill:#fdfefd"
         id="path2705" /><path
         d="m -63.255527,130.89015 v -5.23645 h 0.972484 v 5.23645 z"
         style="fill:#fdfefd"
         id="path2707" /><path
         d="m -61.730223,130.89015 v -5.23645 h 0.972485 v 4.41358 h 2.737918 v 0.82287 z"
         style="fill:#fdfefd"
         id="path2709" /><path
         d="m -56.63861,127.83057 h 2.603266 v 0.80043 h -2.603266 z m 0.07481,2.24419 h 2.954857 v 0.81539 h -3.927341 v -5.23645 h 3.822612 v 0.81539 H -56.5638 Z"
         style="fill:#fdfefd"
         id="path2711" /></g></g></svg>
