<?xml version="1.0" encoding="UTF-8" standalone="no"?>
<!-- Created with Inkscape (http://www.inkscape.org/) -->

<svg
   width="200"
   height="200"
   viewBox="0 0 52.916668 52.916666"
   version="1.1"
   id="svg8"
   inkscape:version="1.2 (dc2aeda, 2022-05-15)"
   sodipodi:docname="mind_1.svg"
   xml:space="preserve"
   xmlns:inkscape="http://www.inkscape.org/namespaces/inkscape"
   xmlns:sodipodi="http://sodipodi.sourceforge.net/DTD/sodipodi-0.dtd"
   xmlns="http://www.w3.org/2000/svg"
   xmlns:svg="http://www.w3.org/2000/svg"
   xmlns:rdf="http://www.w3.org/1999/02/22-rdf-syntax-ns#"
   xmlns:cc="http://creativecommons.org/ns#"
   xmlns:dc="http://purl.org/dc/elements/1.1/"><defs
     id="defs2"><inkscape:path-effect
       effect="envelope"
       id="path-effect4658"
       is_visible="true"
       yy="true"
       xx="true"
       bendpath1="m -199.08406,108.42369 h 7.0057"
       bendpath2="m -192.07836,108.42369 v 6.75242"
       bendpath3="m -199.08406,115.17611 h 7.0057"
       bendpath4="m -199.08406,108.42369 v 6.75242" /><inkscape:path-effect
       effect="bend_path"
       id="path-effect4656"
       is_visible="true"
       bendpath="m -192.00142,114.60623 c 2.12577,-0.53066 4.48261,0.85111 7.0057,0"
       prop_scale="1"
       scale_y_rel="false"
       vertical="false"
       bendpath-nodetypes="cc" /><inkscape:path-effect
       effect="bounding_box"
       id="path-effect4654"
       is_visible="true"
       linkedpath=""
       visualbounds="false" /></defs><sodipodi:namedview
     id="base"
     pagecolor="#ffffff"
     bordercolor="#666666"
     borderopacity="1.0"
     inkscape:pageopacity="0.0"
     inkscape:pageshadow="2"
     inkscape:zoom="2"
     inkscape:cx="86.75"
     inkscape:cy="118.5"
     inkscape:document-units="px"
     inkscape:current-layer="layer1"
     showgrid="false"
     fit-margin-top="0"
     fit-margin-left="0"
     fit-margin-right="0"
     fit-margin-bottom="0"
     inkscape:window-width="1280"
     inkscape:window-height="648"
     inkscape:window-x="-8"
     inkscape:window-y="67"
     inkscape:window-maximized="0"
     showguides="false"
     inkscape:object-nodes="true"
     units="px"
     inkscape:snap-page="true"
     inkscape:showpageshadow="2"
     inkscape:pagecheckerboard="0"
     inkscape:deskcolor="#d1d1d1" /><metadata
     id="metadata5"><rdf:RDF><cc:Work
         rdf:about=""><dc:format>image/svg+xml</dc:format><dc:type
           rdf:resource="http://purl.org/dc/dcmitype/StillImage" /><dc:title /></cc:Work></rdf:RDF></metadata><g
     inkscape:label="Layer 1"
     inkscape:groupmode="layer"
     id="layer1"
     transform="translate(98.048812,-95.14345)"><g
       style="stroke-width:0.5"
       transform="matrix(2,0,0,2,-98.048813,95.143449)"
       id="g5361"><rect
         y="-1.110223e-16"
         x="0"
         height="26.458334"
         width="26.458334"
         id="rect5349"
         style="opacity:1;fill:#222222;fill-opacity:1;fill-rule:nonzero;stroke:none;stroke-width:0.25;stroke-linecap:butt;stroke-linejoin:round;stroke-miterlimit:4;stroke-dasharray:none;stroke-dashoffset:0;stroke-opacity:0.90944878;paint-order:normal"
         rx="1.984375"
         ry="1.984375" /><rect
         style="opacity:1;fill:#666666;fill-opacity:1;fill-rule:nonzero;stroke:none;stroke-width:0.25;stroke-linecap:butt;stroke-linejoin:round;stroke-miterlimit:4;stroke-dasharray:none;stroke-dashoffset:0;stroke-opacity:0.90944878;paint-order:normal"
         id="rect5351"
         width="23.8125"
         height="23.8125"
         x="1.322917"
         y="1.322917"
         rx="1.3229166"
         ry="1.3229166" /><path
         inkscape:connector-curvature="0"
         id="path5355"
         d="m 0.7276035,18.520835 v 4.167188 c 0,1.539081 1.2390438,2.778125 2.778125,2.778125 H 22.952604 c 1.539081,0 2.778125,-1.239044 2.778125,-2.778125 v -4.167188 z"
         style="opacity:1;fill:#222222;fill-opacity:1;fill-rule:nonzero;stroke:none;stroke-width:0.25;stroke-linecap:butt;stroke-linejoin:round;stroke-miterlimit:4;stroke-dasharray:none;stroke-dashoffset:0;stroke-opacity:0.90944878;paint-order:normal" /></g><g
       aria-label="BOOMER"
       id="text405"
       style="font-weight:600;font-size:8.1139px;font-family:Montserrat;-inkscape-font-specification:'Montserrat Semi-Bold';fill:#ffffff;stroke-width:1.632"><path
         d="m -90.528309,141.97029 v -5.67973 h 2.661359 q 1.022352,0 1.557869,0.4057 0.535518,0.39758 0.535518,1.07103 0,0.45438 -0.210962,0.77894 -0.210961,0.31644 -0.567973,0.49494 -0.348898,0.1704 -0.762707,0.1704 l 0.146051,-0.29211 q 0.47872,0 0.860073,0.17851 0.381353,0.17039 0.600429,0.50306 0.227189,0.33267 0.227189,0.82762 0,0.73025 -0.559859,1.13595 -0.559859,0.40569 -1.66335,0.40569 z m 1.054807,-0.82762 h 1.703919 q 0.592315,0 0.908757,-0.19473 0.316442,-0.19473 0.316442,-0.62477 0,-0.42192 -0.316442,-0.61666 -0.316442,-0.20284 -0.908757,-0.20284 h -1.785058 v -0.81951 h 1.574097 q 0.551745,0 0.843845,-0.19473 0.300215,-0.19474 0.300215,-0.5842 0,-0.39758 -0.300215,-0.59232 -0.2921,-0.19473 -0.843845,-0.19473 h -1.492958 z"
         id="path416" /><path
         d="m -81.692274,142.05143 q -0.66534,0 -1.225199,-0.21908 -0.559859,-0.21907 -0.973668,-0.60854 -0.413809,-0.39758 -0.640998,-0.92498 -0.22719,-0.53552 -0.22719,-1.1684 0,-0.63289 0.22719,-1.16029 0.227189,-0.53552 0.640998,-0.92499 0.413809,-0.39758 0.973668,-0.61665 0.559859,-0.21908 1.217085,-0.21908 0.66534,0 1.217085,0.21908 0.559859,0.21907 0.973668,0.61665 0.413809,0.38947 0.640998,0.92499 0.227189,0.5274 0.227189,1.16029 0,0.63288 -0.227189,1.1684 -0.227189,0.53552 -0.640998,0.92498 -0.413809,0.38947 -0.973668,0.60854 -0.551745,0.21908 -1.208971,0.21908 z m -0.0081,-0.92498 q 0.430037,0 0.795162,-0.14605 0.365126,-0.14605 0.632884,-0.41381 0.267759,-0.27588 0.413809,-0.63289 0.154164,-0.36512 0.154164,-0.80327 0,-0.43815 -0.154164,-0.79517 -0.14605,-0.36512 -0.413809,-0.63288 -0.267758,-0.27587 -0.632884,-0.42192 -0.365125,-0.14605 -0.795162,-0.14605 -0.430037,0 -0.795162,0.14605 -0.357012,0.14605 -0.632885,0.42192 -0.267758,0.26776 -0.421922,0.63288 -0.146051,0.35702 -0.146051,0.79517 0,0.43003 0.146051,0.79516 0.154164,0.36512 0.421922,0.641 0.267759,0.26776 0.632885,0.41381 0.365125,0.14605 0.795162,0.14605 z"
         id="path418" /><path
         d="m -74.860378,142.05143 q -0.66534,0 -1.225199,-0.21908 -0.559859,-0.21907 -0.973668,-0.60854 -0.413809,-0.39758 -0.640998,-0.92498 -0.227189,-0.53552 -0.227189,-1.1684 0,-0.63289 0.227189,-1.16029 0.227189,-0.53552 0.640998,-0.92499 0.413809,-0.39758 0.973668,-0.61665 0.559859,-0.21908 1.217085,-0.21908 0.66534,0 1.217085,0.21908 0.559859,0.21907 0.973668,0.61665 0.413809,0.38947 0.640998,0.92499 0.227189,0.5274 0.227189,1.16029 0,0.63288 -0.227189,1.1684 -0.227189,0.53552 -0.640998,0.92498 -0.413809,0.38947 -0.973668,0.60854 -0.551745,0.21908 -1.208971,0.21908 z m -0.0081,-0.92498 q 0.430037,0 0.795162,-0.14605 0.365126,-0.14605 0.632885,-0.41381 0.267758,-0.27588 0.413808,-0.63289 0.154165,-0.36512 0.154165,-0.80327 0,-0.43815 -0.154165,-0.79517 -0.14605,-0.36512 -0.413808,-0.63288 -0.267759,-0.27587 -0.632885,-0.42192 -0.365125,-0.14605 -0.795162,-0.14605 -0.430037,0 -0.795162,0.14605 -0.357012,0.14605 -0.632884,0.42192 -0.267759,0.26776 -0.421923,0.63288 -0.14605,0.35702 -0.14605,0.79517 0,0.43003 0.14605,0.79516 0.154164,0.36512 0.421923,0.641 0.267758,0.26776 0.632884,0.41381 0.365125,0.14605 0.795162,0.14605 z"
         id="path420" /><path
         d="m -70.68984,141.97029 v -5.67973 h 0.868187 l 2.482853,4.1462 h -0.454378 l 2.442284,-4.1462 h 0.868187 l 0.0081,5.67973 h -0.99801 l -0.0081,-4.11375 h 0.210962 l -2.077159,3.46464 h -0.470606 l -2.109614,-3.46464 h 0.243417 v 4.11375 z"
         id="path422" /><path
         d="m -61.967399,138.65171 h 2.823637 v 0.86818 h -2.823637 z m 0.08114,2.43417 h 3.204991 v 0.88441 h -4.259798 v -5.67973 h 4.146203 v 0.88442 h -3.091396 z"
         id="path424" /><path
         d="m -57.504769,141.97029 v -5.67973 h 2.336804 q 0.754592,0 1.29011,0.24342 0.543631,0.24342 0.835732,0.69779 0.2921,0.45438 0.2921,1.07915 0,0.62477 -0.2921,1.07915 -0.292101,0.44627 -0.835732,0.68968 -0.535518,0.23531 -1.29011,0.23531 h -1.752603 l 0.470607,-0.47872 v 2.13395 z m 3.716167,0 -1.436161,-2.06093 h 1.127833 l 1.444274,2.06093 z m -2.661359,-2.02036 -0.470607,-0.50306 h 1.703919 q 0.697796,0 1.046693,-0.30022 0.357012,-0.30021 0.357012,-0.83573 0,-0.54363 -0.357012,-0.83573 -0.348897,-0.2921 -1.046693,-0.2921 h -1.703919 l 0.470607,-0.51929 z"
         id="path426" /></g><path
       style="fill:#222222;fill-opacity:1;stroke-width:0.0473262"
       d="m -82.458344,129.67913 c -0.336462,-0.16313 -0.634016,-0.43816 -0.797686,-0.73786 -0.117249,-0.21491 -0.141391,-0.31875 -0.157493,-0.68417 -0.02652,-0.59377 0.06039,-0.87792 0.373222,-1.22001 0.142734,-0.15642 0.346116,-0.31392 0.504682,-0.39174 0.233437,-0.11402 0.334308,-0.13226 0.829343,-0.15025 0.548423,-0.0194 0.562918,-0.0226 0.533942,-0.12046 -0.06544,-0.21868 -0.08506,-1.90392 -0.02812,-2.39331 0.06949,-0.59512 0.284936,-1.47437 0.498511,-2.03406 0.525888,-1.3791 1.235025,-2.44885 2.388481,-3.60446 1.024942,-1.02735 1.836847,-1.64124 3.404839,-2.57602 0.664871,-0.39603 0.778365,-0.50442 0.778365,-0.74375 0,-0.19051 -0.139519,-0.31258 -0.823977,-0.7231 -0.779172,-0.46738 -1.552429,-0.9914 -2.149689,-1.45664 -0.627305,-0.48886 -1.693029,-1.524 -2.105955,-2.04479 -0.939346,-1.18646 -1.593743,-2.54543 -1.896943,-3.93931 -0.119125,-0.54975 -0.178151,-2.29672 -0.0982,-2.92241 0.02652,-0.20793 0.04107,-0.38529 0.03213,-0.39441 -0.009,-0.009 -0.26026,-0.0328 -0.558624,-0.0535 -0.643401,-0.044 -0.953836,-0.1626 -1.279832,-0.48832 -0.297819,-0.29783 -0.410511,-0.62651 -0.410511,-1.19425 0,-0.74966 0.276889,-1.24496 0.842481,-1.50656 l 0.22217,-0.10276 h 21.533646 l 0.223234,0.11 c 0.303188,0.14945 0.671309,0.56131 0.771655,0.86369 0.06171,0.18514 0.07567,0.35794 0.06091,0.74591 -0.022,0.57793 -0.09927,0.7789 -0.423927,1.10329 -0.306946,0.30721 -0.613623,0.42124 -1.250587,0.46471 -0.299701,0.0206 -0.551911,0.0457 -0.560497,0.0551 -0.0085,0.01 0.0048,0.17735 0.02952,0.37269 0.02468,0.19532 0.03487,0.83415 0.02227,1.41988 -0.01797,0.84436 -0.0432,1.15775 -0.122079,1.51432 -0.657089,2.97288 -2.602594,5.33828 -6.109926,7.42787 -0.821025,0.4894 -0.949813,0.62087 -0.853491,0.87334 0.06869,0.18112 0.21277,0.28951 1.049893,0.78936 3.308783,1.97611 5.293194,4.44642 5.909231,7.35542 0.115372,0.5452 0.178693,2.20281 0.107322,2.82234 l -0.04132,0.36142 0.550301,0.0197 c 0.479467,0.0169 0.584108,0.0359 0.813512,0.14838 0.294603,0.14406 0.591621,0.44003 0.752336,0.74912 0.147572,0.28387 0.183256,1.01071 0.06681,1.3614 -0.109201,0.32867 -0.470613,0.71637 -0.839805,0.90069 l -0.288969,0.14464 -10.629049,-0.004 -10.62904,-0.004 z m 19.284955,-3.49955 c 0.102762,-0.45639 0.09686,-1.84035 -0.01047,-2.41371 -0.40783,-2.1808 -1.805718,-4.17971 -4.125514,-5.89903 -0.261334,-0.19371 -0.866102,-0.58546 -1.343691,-0.87066 -1.392789,-0.83178 -1.563701,-1.03916 -1.56424,-1.90124 -8.47e-4,-0.57686 0.107861,-0.92701 0.37295,-1.2039 0.09391,-0.0979 0.508981,-0.3818 0.922445,-0.63053 1.263735,-0.76065 2.167933,-1.43088 3.005325,-2.22804 1.393595,-1.32651 2.324627,-2.91114 2.686575,-4.57331 0.108934,-0.50094 0.123421,-2.15586 0.02281,-2.65331 l -0.06439,-0.31928 h -16.639429 l -0.08639,0.46149 c -0.117525,0.62891 -0.118592,1.81377 -0.0028,2.39438 0.537412,2.67316 2.400288,4.93313 5.663991,6.87111 1.190484,0.707 1.387958,0.96619 1.388227,1.82371 0,0.7459 -0.242551,1.14298 -0.969668,1.58676 -1.30586,0.79769 -1.591875,0.98471 -2.169807,1.42018 -2.116697,1.59509 -3.42845,3.49014 -3.890477,5.61998 -0.08505,0.39333 -0.103841,0.63052 -0.103294,1.30854 0.0013,0.71746 0.0617,1.34557 0.143802,1.47838 0.0124,0.0201 3.774578,0.0309 8.360769,0.0241 l 8.338497,-0.0118 z m -16.079737,-1.14756 c 0.0034,-0.91629 0.04405,-1.31151 0.140325,-1.40594 0.0376,-0.0365 0.536885,-0.20472 1.109735,-0.37376 1.774584,-0.5232 2.858281,-1.00293 3.720359,-1.64741 0.800362,-0.59779 1.132258,-0.99006 1.536601,-1.81455 0.385291,-0.78564 0.497444,-1.31045 0.587596,-2.74481 0.07835,-1.25568 0.06252,-2.12663 -0.04642,-2.55297 -0.181645,-0.71021 -0.608256,-1.23555 -1.350128,-1.66216 -0.544668,-0.31392 -1.736767,-1.08934 -2.136813,-1.39092 -0.177885,-0.13415 -0.552714,-0.44807 -0.83229,-0.69814 -0.42151,-0.37617 -0.508712,-0.47731 -0.508712,-0.58894 0,-0.12261 0.01504,-0.13495 0.16581,-0.13495 0.09123,0 0.448076,0.0628 0.792856,0.13952 1.471404,0.32707 2.615203,0.47223 4.010408,0.50844 1.49448,0.0389 2.639084,-0.0574 4.638252,-0.3912 1.20873,-0.20176 1.183241,-0.20122 1.183241,-0.02 0,0.12289 -0.07648,0.2066 -0.570424,0.62704 -0.745363,0.63402 -1.572558,1.22214 -2.361922,1.67854 -0.845173,0.48913 -1.144068,0.71961 -1.404327,1.08424 -0.336191,0.47115 -0.406488,0.69841 -0.44593,1.43759 -0.05178,0.97315 0.02228,2.71315 0.14113,3.31709 0.307483,1.56532 0.96001,2.53686 2.298601,3.42362 0.916543,0.60747 2.142714,1.10221 3.943334,1.59133 0.435196,0.11833 0.596986,0.18325 0.637232,0.25543 0.03408,0.0609 0.06091,0.47893 0.07271,1.12637 l 0.01879,1.02923 h -15.344306 l 0.0034,-0.79259 z"
       id="path407" /></g></svg>
