<?xml version="1.0" encoding="UTF-8" standalone="no"?>
<!-- Created with Inkscape (http://www.inkscape.org/) -->

<svg
   width="200"
   height="200"
   viewBox="0 0 52.916668 52.916666"
   version="1.1"
   id="svg8"
   inkscape:version="1.2 (dc2aeda, 2022-05-15)"
   sodipodi:docname="phil_0.svg"
   xml:space="preserve"
   xmlns:inkscape="http://www.inkscape.org/namespaces/inkscape"
   xmlns:sodipodi="http://sodipodi.sourceforge.net/DTD/sodipodi-0.dtd"
   xmlns="http://www.w3.org/2000/svg"
   xmlns:svg="http://www.w3.org/2000/svg"
   xmlns:rdf="http://www.w3.org/1999/02/22-rdf-syntax-ns#"
   xmlns:cc="http://creativecommons.org/ns#"
   xmlns:dc="http://purl.org/dc/elements/1.1/"><defs
     id="defs2"><inkscape:path-effect
       effect="envelope"
       id="path-effect4658"
       is_visible="true"
       yy="true"
       xx="true"
       bendpath1="m -199.08406,108.42369 h 7.0057"
       bendpath2="m -192.07836,108.42369 v 6.75242"
       bendpath3="m -199.08406,115.17611 h 7.0057"
       bendpath4="m -199.08406,108.42369 v 6.75242" /><inkscape:path-effect
       effect="bend_path"
       id="path-effect4656"
       is_visible="true"
       bendpath="m -192.00142,114.60623 c 2.12577,-0.53066 4.48261,0.85111 7.0057,0"
       prop_scale="1"
       scale_y_rel="false"
       vertical="false"
       bendpath-nodetypes="cc" /><inkscape:path-effect
       effect="bounding_box"
       id="path-effect4654"
       is_visible="true"
       linkedpath=""
       visualbounds="false" /></defs><sodipodi:namedview
     id="base"
     pagecolor="#ffffff"
     bordercolor="#666666"
     borderopacity="1.0"
     inkscape:pageopacity="0.0"
     inkscape:pageshadow="2"
     inkscape:zoom="2"
     inkscape:cx="90.75"
     inkscape:cy="64"
     inkscape:document-units="px"
     inkscape:current-layer="layer1"
     showgrid="false"
     fit-margin-top="0"
     fit-margin-left="0"
     fit-margin-right="0"
     fit-margin-bottom="0"
     inkscape:window-width="1280"
     inkscape:window-height="456"
     inkscape:window-x="0"
     inkscape:window-y="25"
     inkscape:window-maximized="0"
     showguides="false"
     inkscape:object-nodes="true"
     units="px"
     inkscape:snap-page="true"
     inkscape:showpageshadow="2"
     inkscape:pagecheckerboard="0"
     inkscape:deskcolor="#d1d1d1" /><metadata
     id="metadata5"><rdf:RDF><cc:Work
         rdf:about=""><dc:format>image/svg+xml</dc:format><dc:type
           rdf:resource="http://purl.org/dc/dcmitype/StillImage" /><dc:title /></cc:Work></rdf:RDF></metadata><g
     inkscape:label="Layer 1"
     inkscape:groupmode="layer"
     id="layer1"
     transform="translate(98.048812,-95.14345)"><g
       style="stroke-width:0.5"
       id="g5375"
       transform="matrix(2,0,0,2,-98.048812,95.143449)"><rect
         ry="1.984375"
         rx="1.984375"
         style="opacity:1;fill:#222222;fill-opacity:1;fill-rule:nonzero;stroke:none;stroke-width:0.25;stroke-linecap:butt;stroke-linejoin:round;stroke-miterlimit:4;stroke-dasharray:none;stroke-dashoffset:0;stroke-opacity:0.90944878;paint-order:normal"
         id="rect5363"
         width="26.458334"
         height="26.458334"
         x="0"
         y="-1.110223e-16" /><rect
         ry="1.3229166"
         rx="1.3229166"
         y="1.322917"
         x="1.322917"
         height="23.8125"
         width="23.8125"
         id="rect5365"
         style="opacity:1;fill:#20a0c0;fill-opacity:1;fill-rule:nonzero;stroke:none;stroke-width:0.25;stroke-linecap:butt;stroke-linejoin:round;stroke-miterlimit:4;stroke-dasharray:none;stroke-dashoffset:0;stroke-opacity:0.90944878;paint-order:normal" /><path
         inkscape:connector-curvature="0"
         id="path5369"
         d="m 0.72760492,18.520836 v 4.167188 c 0,1.539081 1.23904398,2.778124 2.77812498,2.778124 H 22.952604 c 1.539081,0 2.778125,-1.239043 2.778125,-2.778124 v -4.167188 z"
         style="opacity:1;fill:#222222;fill-opacity:1;fill-rule:nonzero;stroke:none;stroke-width:0.24999997;stroke-linecap:butt;stroke-linejoin:round;stroke-miterlimit:4;stroke-dasharray:none;stroke-dashoffset:0;stroke-opacity:0.90944878;paint-order:normal" /></g><g
       aria-label="ABSTRACT"
       id="text1600"
       style="font-weight:600;font-size:8.1139px;font-family:Montserrat;-inkscape-font-specification:'Montserrat Semi-Bold';fill:#20a0c0;stroke-width:1.632"><path
         d="m -93.996983,141.97029 2.555879,-5.67973 h 1.038579 l 2.563992,5.67973 h -1.10349 l -2.198867,-5.11987 h 0.421923 l -2.190753,5.11987 z m 1.176516,-1.31445 0.283986,-0.82762 h 3.067055 l 0.283986,0.82762 z"
         style="fill:#f8fdfe"
         id="path1817" /><path
         d="m -87.116407,141.97029 v -5.67973 h 2.66136 q 1.022351,0 1.557869,0.4057 0.535517,0.39758 0.535517,1.07103 0,0.45438 -0.210961,0.77894 -0.210962,0.31644 -0.567973,0.49494 -0.348898,0.1704 -0.762707,0.1704 l 0.14605,-0.29211 q 0.47872,0 0.860074,0.17851 0.381353,0.17039 0.600428,0.50306 0.227189,0.33267 0.227189,0.82762 0,0.73025 -0.559859,1.13595 -0.559859,0.40569 -1.663349,0.40569 z m 1.054807,-0.82762 h 1.703919 q 0.592315,0 0.908757,-0.19473 0.316442,-0.19473 0.316442,-0.62477 0,-0.42192 -0.316442,-0.61666 -0.316442,-0.20284 -0.908757,-0.20284 h -1.785058 v -0.81951 h 1.574097 q 0.551745,0 0.843846,-0.19473 0.300214,-0.19474 0.300214,-0.5842 0,-0.39758 -0.300214,-0.59232 -0.292101,-0.19473 -0.843846,-0.19473 H -86.0616 Z"
         style="fill:#f8fdfe"
         id="path1819" /><path
         d="m -79.181014,142.05143 q -0.66534,0 -1.273883,-0.18662 -0.608542,-0.19473 -0.965554,-0.49495 l 0.365126,-0.8195 q 0.340784,0.26776 0.843845,0.44626 0.503062,0.17851 1.030466,0.17851 0.446264,0 0.722137,-0.0974 0.275872,-0.0974 0.405695,-0.25964 0.129822,-0.17039 0.129822,-0.38136 0,-0.25964 -0.186619,-0.4138 -0.18662,-0.16228 -0.486834,-0.25154 -0.292101,-0.0974 -0.657226,-0.1785 -0.357012,-0.0811 -0.722138,-0.18662 -0.357011,-0.1136 -0.657225,-0.28399 -0.292101,-0.1785 -0.478721,-0.4706 -0.186619,-0.2921 -0.186619,-0.74648 0,-0.4625 0.243417,-0.84385 0.251531,-0.38947 0.754592,-0.61665 0.511176,-0.23531 1.290111,-0.23531 0.511175,0 1.014237,0.12982 0.503062,0.12983 0.876301,0.37324 l -0.33267,0.81951 q -0.381353,-0.22719 -0.787048,-0.33267 -0.405695,-0.1136 -0.778934,-0.1136 -0.438151,0 -0.714024,0.10548 -0.267758,0.10548 -0.397581,0.27588 -0.121708,0.17039 -0.121708,0.38946 0,0.25965 0.178506,0.42193 0.186619,0.15416 0.47872,0.24341 0.300214,0.0893 0.66534,0.17851 0.365125,0.0811 0.722137,0.18662 0.365125,0.10548 0.657226,0.27587 0.300214,0.17039 0.47872,0.46249 0.186619,0.2921 0.186619,0.73837 0,0.45438 -0.25153,0.84384 -0.243417,0.38136 -0.754593,0.61666 -0.511176,0.22719 -1.29011,0.22719 z"
         style="fill:#f8fdfe"
         id="path1821" /><path
         d="m -74.767058,141.97029 v -4.7872 h -1.882425 v -0.89253 h 4.819657 v 0.89253 h -1.882425 v 4.7872 z"
         style="fill:#f8fdfe"
         id="path1823" /><path
         d="m -71.034668,141.97029 v -5.67973 h 2.336803 q 0.754593,0 1.29011,0.24342 0.543632,0.24342 0.835732,0.69779 0.2921,0.45438 0.2921,1.07915 0,0.62477 -0.2921,1.07915 -0.2921,0.44627 -0.835732,0.68968 -0.535517,0.23531 -1.29011,0.23531 h -1.752602 l 0.470606,-0.47872 v 2.13395 z m 3.716166,0 -1.43616,-2.06093 h 1.127832 l 1.444274,2.06093 z m -2.661359,-2.02036 -0.470606,-0.50306 h 1.703919 q 0.697795,0 1.046693,-0.30022 0.357011,-0.30021 0.357011,-0.83573 0,-0.54363 -0.357011,-0.83573 -0.348898,-0.2921 -1.046693,-0.2921 h -1.703919 l 0.470606,-0.51929 z"
         style="fill:#f8fdfe"
         id="path1825" /><path
         d="m -65.906693,141.97029 2.555879,-5.67973 h 1.038579 l 2.563993,5.67973 h -1.103491 l -2.198867,-5.11987 h 0.421923 l -2.190753,5.11987 z m 1.176516,-1.31445 0.283986,-0.82762 h 3.067055 l 0.283986,0.82762 z"
         style="fill:#f8fdfe"
         id="path1827" /><path
         d="m -56.478354,142.05143 q -0.649112,0 -1.208971,-0.21096 -0.551746,-0.21908 -0.965555,-0.60854 -0.405695,-0.39758 -0.632884,-0.9331 -0.227189,-0.53552 -0.227189,-1.1684 0,-0.63289 0.227189,-1.16841 0.227189,-0.53551 0.640998,-0.92498 0.413809,-0.39758 0.965554,-0.60854 0.551746,-0.21908 1.208972,-0.21908 0.697795,0 1.273882,0.24342 0.576087,0.2353 0.973668,0.70591 l -0.681568,0.641 q -0.308328,-0.33267 -0.689681,-0.49495 -0.381354,-0.17039 -0.827618,-0.17039 -0.446265,0 -0.819504,0.14605 -0.365125,0.14605 -0.640998,0.41381 -0.267759,0.26775 -0.421923,0.63288 -0.14605,0.36513 -0.14605,0.80328 0,0.43815 0.14605,0.80327 0.154164,0.36513 0.421923,0.63289 0.275873,0.26776 0.640998,0.41381 0.373239,0.14605 0.819504,0.14605 0.446264,0 0.827618,-0.16228 0.381353,-0.17039 0.689681,-0.51118 l 0.681568,0.64911 q -0.397581,0.4625 -0.973668,0.70591 -0.576087,0.24342 -1.281996,0.24342 z"
         style="fill:#f8fdfe"
         id="path1829" /><path
         d="m -52.121207,141.97029 v -4.7872 h -1.882424 v -0.89253 h 4.819656 v 0.89253 H -51.0664 v 4.7872 z"
         style="fill:#f8fdfe"
         id="path1831" /></g><path
       style="fill:#222222;fill-opacity:1;stroke-width:0.0744965"
       d="m -86.715952,128.36618 c -1.593591,-0.56735 -2.740185,-1.58194 -3.503593,-3.09983 -0.187353,-0.37196 -0.262391,-0.64809 -0.324388,-1.19187 -0.09266,-0.81213 -0.09951,-2.42632 -0.01409,-3.35237 0.135667,-1.47143 1.352023,-3.10345 2.946301,-3.95311 l 0.448851,-0.23929 0.0026,-0.45525 c 0.0026,-0.25049 0.0492,-0.81327 0.107515,-1.25066 0.487279,-3.66008 3.32835,-6.61256 6.98658,-7.26042 0.884415,-0.15671 2.754367,-0.15396 3.626887,0.005 0.345439,0.0629 0.633916,0.1066 0.641008,0.097 0.0073,-0.01 0.07389,-0.1853 0.14847,-0.39004 0.364428,-1.0043 1.126911,-1.97473 2.030087,-2.58417 1.007724,-0.68013 1.955509,-0.95442 3.297006,-0.95442 0.791538,0 1.252734,0.0721 2.000347,0.31272 0.452045,0.1455 0.479498,0.14664 0.549501,0.0217 0.04049,-0.0725 0.247528,-0.33651 0.459823,-0.58701 0.72977,-0.86017 1.752363,-1.55723 2.746133,-1.87247 0.544468,-0.17272 0.684015,-0.18439 2.202806,-0.18439 1.794457,0 2.015449,0.037 2.958886,0.49551 1.619221,0.78697 2.871041,2.42883 3.247134,4.25806 0.114384,0.55775 0.142523,0.93887 0.123535,1.67459 l -0.02494,0.95236 0.355277,0.10546 c 1.168775,0.34704 2.446901,1.49568 2.902149,2.6084 0.221449,0.54058 0.311354,2.44143 0.174552,3.68752 -0.08579,0.78102 -0.436033,1.43643 -1.158939,2.16736 -0.97684,0.98781 -1.952077,1.39776 -3.483681,1.46364 -0.501916,0.0217 -0.912555,0.0491 -0.912555,0.0611 0,0.0119 0.132457,0.29534 0.294195,0.63003 0.161968,0.33469 0.367173,0.92376 0.456164,1.30924 0.140464,0.60784 0.156935,0.84712 0.123535,1.79971 -0.02813,0.8112 -0.07984,1.24153 -0.197199,1.64484 a 6.1163427,6.1163427 0 0 1 -3.861144,4.07117 l -0.537607,0.18757 -12.16291,-0.004 -12.162909,-0.004 z m 24.174143,-1.4067 c 0.879155,-0.25554 1.519021,-0.63895 2.206469,-1.32159 0.522963,-0.51954 0.699572,-0.75654 0.952131,-1.27814 0.170433,-0.3523 0.362369,-0.88762 0.426424,-1.18914 0.444039,-2.09208 -1.018475,-4.55157 -3.138011,-5.27768 l -0.372435,-0.12742 -0.08785,-0.96998 c -0.09379,-1.03675 -0.320274,-1.86787 -0.674864,-2.47984 -0.747158,-1.2891 -1.85531,-2.16917 -3.297464,-2.61939 -0.811438,-0.25325 -1.961684,-0.2393 -2.793484,0.0343 a 5.6629232,5.6629232 0 0 0 -1.83861,1.02557 c -0.492995,0.41407 -0.712383,0.40034 -0.955107,-0.06 -0.102488,-0.19399 -0.379068,-0.5932 -0.614927,-0.88695 -1.039065,-1.29436 -2.500893,-2.20714 -4.152827,-2.59307 -3.451423,-0.80618 -7.168907,1.39502 -8.296273,4.91302 -0.291685,0.90958 -0.363282,1.4671 -0.33446,2.59972 l 0.02657,1.03518 -0.372433,0.12742 c -1.26097,0.43122 -2.318325,1.3424 -2.852741,2.4581 -0.304263,0.63484 -0.538053,1.53574 -0.535546,2.06419 0.0029,0.51632 0.214356,1.29872 0.528453,1.94909 0.248443,0.51474 0.430774,0.76273 0.914625,1.24519 0.847575,0.8453 1.679837,1.27791 2.767171,1.43895 0.244327,0.0359 5.305131,0.0604 11.246238,0.054 10.033994,-0.0108 10.833768,-0.0208 11.248981,-0.14161 z m 5.936531,-9.84389 c 1.346986,-0.4008 2.333892,-1.48241 2.605668,-2.85663 0.242036,-1.22299 -0.518159,-2.80012 -1.676869,-3.4791 -0.530971,-0.31113 -1.161,-0.49002 -1.899463,-0.53898 l -0.695682,-0.046 0.03683,-0.19331 c 0.02059,-0.10616 0.145039,-0.49369 0.27681,-0.86131 0.446781,-1.24496 0.389589,-2.31171 -0.187591,-3.50359 -0.755391,-1.5602 -2.133032,-2.52103 -3.949452,-2.7546 -0.438548,-0.0565 -1.357281,0.11439 -1.98296,0.36855 -1.239466,0.50351 -2.383077,1.73063 -2.744987,2.9447 -0.105235,0.35345 -0.149844,0.41293 -0.324394,0.43352 -0.149157,0.0174 -0.288935,-0.0526 -0.532801,-0.2672 -0.932917,-0.82128 -2.402292,-1.1912 -3.589828,-0.90387 -1.235805,0.299 -2.43638,1.3932 -2.904211,2.64777 -0.08601,0.2306 -0.08236,0.23654 0.259881,0.42345 0.685162,0.37449 1.742983,1.26875 2.293628,1.93904 l 0.233343,0.28367 0.303347,-0.15465 c 1.89054,-0.96449 4.528692,-0.95077 6.458122,0.0338 1.882761,0.9606 3.181021,2.67727 3.567639,4.71721 0.06497,0.34246 0.118044,0.74784 0.118044,0.90066 0,0.25461 0.02973,0.29419 0.353903,0.4724 0.194683,0.10706 0.471263,0.2807 0.6147,0.38616 l 0.260796,0.19193 1.340808,-0.0288 c 0.972722,-0.0208 1.457252,-0.0634 1.76449,-0.15488 z"
       id="path1808" /></g></svg>
