<?xml version="1.0" encoding="UTF-8" standalone="no"?>
<!-- Created with Inkscape (http://www.inkscape.org/) -->

<svg
   width="200"
   height="200"
   viewBox="0 0 52.916668 52.916666"
   version="1.1"
   id="svg8"
   inkscape:version="1.2 (dc2aeda, 2022-05-15)"
   sodipodi:docname="pol_1.svg"
   xml:space="preserve"
   xmlns:inkscape="http://www.inkscape.org/namespaces/inkscape"
   xmlns:sodipodi="http://sodipodi.sourceforge.net/DTD/sodipodi-0.dtd"
   xmlns="http://www.w3.org/2000/svg"
   xmlns:svg="http://www.w3.org/2000/svg"
   xmlns:rdf="http://www.w3.org/1999/02/22-rdf-syntax-ns#"
   xmlns:cc="http://creativecommons.org/ns#"
   xmlns:dc="http://purl.org/dc/elements/1.1/"><defs
     id="defs2"><inkscape:path-effect
       effect="envelope"
       id="path-effect4658"
       is_visible="true"
       yy="true"
       xx="true"
       bendpath1="m -199.08406,108.42369 h 7.0057"
       bendpath2="m -192.07836,108.42369 v 6.75242"
       bendpath3="m -199.08406,115.17611 h 7.0057"
       bendpath4="m -199.08406,108.42369 v 6.75242" /><inkscape:path-effect
       effect="bend_path"
       id="path-effect4656"
       is_visible="true"
       bendpath="m -192.00142,114.60623 c 2.12577,-0.53066 4.48261,0.85111 7.0057,0"
       prop_scale="1"
       scale_y_rel="false"
       vertical="false"
       bendpath-nodetypes="cc" /><inkscape:path-effect
       effect="bounding_box"
       id="path-effect4654"
       is_visible="true"
       linkedpath=""
       visualbounds="false" /></defs><sodipodi:namedview
     id="base"
     pagecolor="#ffffff"
     bordercolor="#666666"
     borderopacity="1.0"
     inkscape:pageopacity="0.0"
     inkscape:pageshadow="2"
     inkscape:zoom="2"
     inkscape:cx="94.75"
     inkscape:cy="104.25"
     inkscape:document-units="mm"
     inkscape:current-layer="layer1"
     showgrid="false"
     fit-margin-top="0"
     fit-margin-left="0"
     fit-margin-right="0"
     fit-margin-bottom="0"
     inkscape:window-width="1280"
     inkscape:window-height="667"
     inkscape:window-x="0"
     inkscape:window-y="25"
     inkscape:window-maximized="0"
     showguides="false"
     inkscape:object-nodes="true"
     units="px"
     inkscape:snap-page="true"
     inkscape:showpageshadow="2"
     inkscape:pagecheckerboard="0"
     inkscape:deskcolor="#d1d1d1" /><metadata
     id="metadata5"><rdf:RDF><cc:Work
         rdf:about=""><dc:format>image/svg+xml</dc:format><dc:type
           rdf:resource="http://purl.org/dc/dcmitype/StillImage" /><dc:title /></cc:Work></rdf:RDF></metadata><g
     inkscape:label="Layer 1"
     inkscape:groupmode="layer"
     id="layer1"
     transform="translate(249.80447,-91.409467)"
     style="display:inline"><g
       style="stroke-width:0.5"
       id="g5334"
       transform="matrix(2,0,0,2,-249.80447,91.409467)"><rect
         ry="1.984375"
         rx="1.984375"
         style="opacity:1;fill:#222222;fill-opacity:1;fill-rule:nonzero;stroke:none;stroke-width:0.25;stroke-linecap:butt;stroke-linejoin:round;stroke-miterlimit:4;stroke-dasharray:none;stroke-dashoffset:0;stroke-opacity:0.909449;paint-order:normal"
         id="rect5322"
         width="26.458334"
         height="26.458334"
         x="0"
         y="-1.110223e-16" /><rect
         ry="1.3229166"
         rx="1.3229166"
         y="1.322917"
         x="1.322917"
         height="23.8125"
         width="23.8125"
         id="rect5324"
         style="opacity:1;fill:#5090fb;fill-opacity:1;fill-rule:nonzero;stroke:none;stroke-width:0.25;stroke-linecap:butt;stroke-linejoin:round;stroke-miterlimit:4;stroke-dasharray:none;stroke-dashoffset:0;stroke-opacity:0.909449;paint-order:normal" /><path
         inkscape:connector-curvature="0"
         id="path5326"
         d="m 0.72760467,18.520836 v 4.167188 c 0,1.539081 1.23904383,2.778124 2.77812503,2.778124 H 22.952604 c 1.539081,0 2.778125,-1.239043 2.778125,-2.778124 v -4.167188 z"
         style="opacity:1;fill:#222222;fill-opacity:1;fill-rule:nonzero;stroke:none;stroke-width:0.25;stroke-linecap:butt;stroke-linejoin:round;stroke-miterlimit:4;stroke-dasharray:none;stroke-dashoffset:0;stroke-opacity:0.909449;paint-order:normal" /></g><g
       aria-label="RIGHT"
       id="text1639"
       style="font-weight:600;font-size:8.1139px;font-family:Montserrat;-inkscape-font-specification:'Montserrat Semi-Bold';fill:#5090fb;stroke-width:1.632"><path
         d="m -236.06871,138.24484 v -5.67973 h 2.3368 q 0.75459,0 1.29011,0.24342 0.54363,0.24342 0.83573,0.69779 0.2921,0.45438 0.2921,1.07915 0,0.62477 -0.2921,1.07915 -0.2921,0.44627 -0.83573,0.68968 -0.53552,0.23531 -1.29011,0.23531 h -1.7526 l 0.4706,-0.47872 v 2.13395 z m 3.71616,0 -1.43616,-2.06093 h 1.12783 l 1.44428,2.06093 z m -2.66136,-2.02036 -0.4706,-0.50306 h 1.70392 q 0.69779,0 1.04669,-0.30021 0.35701,-0.30022 0.35701,-0.83574 0,-0.54363 -0.35701,-0.83573 -0.3489,-0.2921 -1.04669,-0.2921 h -1.70392 l 0.4706,-0.51929 z"
         style="fill:#ffffff"
         id="path190" /><path
         d="m -230.13746,138.24484 v -5.67973 h 1.05481 v 5.67973 z"
         style="fill:#ffffff"
         id="path192" /><path
         d="m -224.8959,138.32598 q -0.66534,0 -1.22519,-0.21096 -0.55175,-0.21908 -0.96556,-0.60854 -0.41381,-0.39758 -0.641,-0.9331 -0.22719,-0.53552 -0.22719,-1.1684 0,-0.63289 0.22719,-1.1684 0.22719,-0.53552 0.641,-0.92499 0.42192,-0.39758 0.98178,-0.60854 0.55986,-0.21908 1.2252,-0.21908 0.72214,0 1.29823,0.23531 0.5842,0.2353 0.98178,0.68968 l -0.66534,0.64911 q -0.33267,-0.33267 -0.72214,-0.48683 -0.38135,-0.16228 -0.84384,-0.16228 -0.44627,0 -0.82762,0.14605 -0.38136,0.14605 -0.65723,0.41381 -0.27587,0.26776 -0.43003,0.63288 -0.14606,0.36513 -0.14606,0.80328 0,0.43003 0.14606,0.79516 0.15416,0.36513 0.43003,0.641 0.27587,0.26776 0.64911,0.41381 0.37324,0.14605 0.82762,0.14605 0.42192,0 0.81139,-0.12983 0.39758,-0.13793 0.75459,-0.45437 l 0.60043,0.78704 q -0.44626,0.35702 -1.03858,0.54364 -0.5842,0.1785 -1.18463,0.1785 z m 1.2252,-0.86007 v -2.12584 h 0.99801 v 2.26377 z"
         style="fill:#ffffff"
         id="path194" /><path
         d="m -217.29318,132.56511 h 1.05481 v 5.67973 h -1.05481 z m -2.93723,5.67973 h -1.05481 v -5.67973 h 1.05481 z m 3.01837,-2.43417 h -3.10762 v -0.90064 h 3.10762 z"
         style="fill:#ffffff"
         id="path196" /><path
         d="m -213.56079,138.24484 v -4.7872 h -1.88242 v -0.89253 h 4.81966 v 0.89253 h -1.88243 v 4.7872 z"
         style="fill:#ffffff"
         id="path198" /></g><g
       id="g403"
       transform="matrix(0.0871805,0,0,0.08718051,-239.87979,94.751728)"
       style="fill:#222222;fill-opacity:1"><g
         id="g334"
         style="fill:#222222;fill-opacity:1">
	<path
   d="M 190.025,31.059 0,348.238 h 379.297 z m 109.46,212.703 H 80.079 l 44.332,-73.997 H 255.329 Z M 246.378,154.765 H 133.398 L 190,60.288 Z M 71.092,258.762 h 237.344 l 44.443,74.476 H 26.473 Z"
   id="path302"
   style="fill:#222222;fill-opacity:1" />
	<g
   id="g304"
   style="fill:#222222;fill-opacity:1">
	</g>
	<g
   id="g306"
   style="fill:#222222;fill-opacity:1">
	</g>
	<g
   id="g308"
   style="fill:#222222;fill-opacity:1">
	</g>
	<g
   id="g310"
   style="fill:#222222;fill-opacity:1">
	</g>
	<g
   id="g312"
   style="fill:#222222;fill-opacity:1">
	</g>
	<g
   id="g314"
   style="fill:#222222;fill-opacity:1">
	</g>
	<g
   id="g316"
   style="fill:#222222;fill-opacity:1">
	</g>
	<g
   id="g318"
   style="fill:#222222;fill-opacity:1">
	</g>
	<g
   id="g320"
   style="fill:#222222;fill-opacity:1">
	</g>
	<g
   id="g322"
   style="fill:#222222;fill-opacity:1">
	</g>
	<g
   id="g324"
   style="fill:#222222;fill-opacity:1">
	</g>
	<g
   id="g326"
   style="fill:#222222;fill-opacity:1">
	</g>
	<g
   id="g328"
   style="fill:#222222;fill-opacity:1">
	</g>
	<g
   id="g330"
   style="fill:#222222;fill-opacity:1">
	</g>
	<g
   id="g332"
   style="fill:#222222;fill-opacity:1">
	</g>
</g><g
         id="g336"
         style="fill:#222222;fill-opacity:1">
</g><g
         id="g338"
         style="fill:#222222;fill-opacity:1">
</g><g
         id="g340"
         style="fill:#222222;fill-opacity:1">
</g><g
         id="g342"
         style="fill:#222222;fill-opacity:1">
</g><g
         id="g344"
         style="fill:#222222;fill-opacity:1">
</g><g
         id="g346"
         style="fill:#222222;fill-opacity:1">
</g><g
         id="g348"
         style="fill:#222222;fill-opacity:1">
</g><g
         id="g350"
         style="fill:#222222;fill-opacity:1">
</g><g
         id="g352"
         style="fill:#222222;fill-opacity:1">
</g><g
         id="g354"
         style="fill:#222222;fill-opacity:1">
</g><g
         id="g356"
         style="fill:#222222;fill-opacity:1">
</g><g
         id="g358"
         style="fill:#222222;fill-opacity:1">
</g><g
         id="g360"
         style="fill:#222222;fill-opacity:1">
</g><g
         id="g362"
         style="fill:#222222;fill-opacity:1">
</g><g
         id="g364"
         style="fill:#222222;fill-opacity:1">
</g></g></g></svg>
