<?xml version="1.0" encoding="UTF-8" standalone="no"?>
<!-- Created with Inkscape (http://www.inkscape.org/) -->

<svg
   width="200"
   height="200"
   viewBox="0 0 52.916668 52.916666"
   version="1.1"
   id="svg8"
   inkscape:version="1.2 (dc2aeda, 2022-05-15)"
   sodipodi:docname="soc_1.svg"
   xml:space="preserve"
   xmlns:inkscape="http://www.inkscape.org/namespaces/inkscape"
   xmlns:sodipodi="http://sodipodi.sourceforge.net/DTD/sodipodi-0.dtd"
   xmlns="http://www.w3.org/2000/svg"
   xmlns:svg="http://www.w3.org/2000/svg"
   xmlns:rdf="http://www.w3.org/1999/02/22-rdf-syntax-ns#"
   xmlns:cc="http://creativecommons.org/ns#"
   xmlns:dc="http://purl.org/dc/elements/1.1/"><defs
     id="defs2"><inkscape:path-effect
       effect="envelope"
       id="path-effect4658"
       is_visible="true"
       yy="true"
       xx="true"
       bendpath1="m -199.08406,108.42369 h 7.0057"
       bendpath2="m -192.07836,108.42369 v 6.75242"
       bendpath3="m -199.08406,115.17611 h 7.0057"
       bendpath4="m -199.08406,108.42369 v 6.75242" /><inkscape:path-effect
       effect="bend_path"
       id="path-effect4656"
       is_visible="true"
       bendpath="m -192.00142,114.60623 c 2.12577,-0.53066 4.48261,0.85111 7.0057,0"
       prop_scale="1"
       scale_y_rel="false"
       vertical="false"
       bendpath-nodetypes="cc" /><inkscape:path-effect
       effect="bounding_box"
       id="path-effect4654"
       is_visible="true"
       linkedpath=""
       visualbounds="false" /></defs><sodipodi:namedview
     id="base"
     pagecolor="#ffffff"
     bordercolor="#666666"
     borderopacity="1.0"
     inkscape:pageopacity="0.0"
     inkscape:pageshadow="2"
     inkscape:zoom="2"
     inkscape:cx="92.25"
     inkscape:cy="86"
     inkscape:document-units="px"
     inkscape:current-layer="g5361"
     showgrid="false"
     fit-margin-top="0"
     fit-margin-left="0"
     fit-margin-right="0"
     fit-margin-bottom="0"
     inkscape:window-width="1280"
     inkscape:window-height="652"
     inkscape:window-x="0"
     inkscape:window-y="25"
     inkscape:window-maximized="0"
     showguides="false"
     inkscape:object-nodes="true"
     units="px"
     inkscape:snap-page="true"
     inkscape:showpageshadow="2"
     inkscape:pagecheckerboard="0"
     inkscape:deskcolor="#d1d1d1" /><metadata
     id="metadata5"><rdf:RDF><cc:Work
         rdf:about=""><dc:format>image/svg+xml</dc:format><dc:type
           rdf:resource="http://purl.org/dc/dcmitype/StillImage" /><dc:title /></cc:Work></rdf:RDF></metadata><g
     inkscape:label="Layer 1"
     inkscape:groupmode="layer"
     id="layer1"
     transform="translate(98.048812,-95.14345)"><g
       style="stroke-width:0.5"
       transform="matrix(2,0,0,2,-98.048813,95.143449)"
       id="g5361"><rect
         y="-1.110223e-16"
         x="0"
         height="26.458334"
         width="26.458334"
         id="rect5349"
         style="opacity:1;fill:#222222;fill-opacity:1;fill-rule:nonzero;stroke:none;stroke-width:0.25;stroke-linecap:butt;stroke-linejoin:round;stroke-miterlimit:4;stroke-dasharray:none;stroke-dashoffset:0;stroke-opacity:0.90944878;paint-order:normal"
         rx="1.984375"
         ry="1.984375" /><rect
         style="opacity:1;fill:#ffd030;fill-opacity:1;fill-rule:nonzero;stroke:none;stroke-width:0.25;stroke-linecap:butt;stroke-linejoin:round;stroke-miterlimit:4;stroke-dasharray:none;stroke-dashoffset:0;stroke-opacity:0.90944878;paint-order:normal"
         id="rect5351"
         width="23.8125"
         height="23.8125"
         x="1.322917"
         y="1.322917"
         rx="1.3229166"
         ry="1.3229166" /><path
         inkscape:connector-curvature="0"
         id="path5355"
         d="m 0.7276035,18.520835 v 4.167188 c 0,1.539081 1.2390438,2.778125 2.778125,2.778125 H 22.952604 c 1.539081,0 2.778125,-1.239044 2.778125,-2.778125 v -4.167188 z"
         style="opacity:1;fill:#222222;fill-opacity:1;fill-rule:nonzero;stroke:none;stroke-width:0.25;stroke-linecap:butt;stroke-linejoin:round;stroke-miterlimit:4;stroke-dasharray:none;stroke-dashoffset:0;stroke-opacity:0.90944878;paint-order:normal" /><g
         aria-label="ASSIMILATION"
         transform="matrix(0.92195445,0,0,1.0846523,3.3595458e-5,4.9477923e-6)"
         id="text2412"
         style="font-weight:600;font-size:3.74032px;font-family:Montserrat;-inkscape-font-specification:'Montserrat Semi-Bold';fill:#fffefb;stroke-width:0.752315"><path
           d="m 2.0919479,21.586107 1.1782009,-2.618224 h 0.4787609 l 1.1819411,2.618224 H 4.4221673 L 3.4085406,19.225965 h 0.1944966 l -1.0098863,2.360142 z m 0.5423465,-0.605932 0.1309112,-0.381512 h 1.4138409 l 0.1309112,0.381512 z"
           id="path2934" /><path
           d="m 5.9827497,21.62351 q -0.3067062,0 -0.5872302,-0.08603 -0.280524,-0.08977 -0.4450981,-0.228159 l 0.1683144,-0.377773 q 0.1570934,0.123431 0.3889933,0.205718 0.2318998,0.08229 0.4750206,0.08229 0.2057176,0 0.3328885,-0.04488 0.1271708,-0.04488 0.187016,-0.11969 0.059845,-0.07855 0.059845,-0.175795 0,-0.11969 -0.086027,-0.190757 -0.086028,-0.07481 -0.2244195,-0.115953 -0.1346515,-0.04488 -0.3029659,-0.08229 -0.1645741,-0.0374 -0.3328885,-0.08603 -0.164574,-0.05236 -0.3029659,-0.130911 -0.1346515,-0.08229 -0.2206789,-0.216939 -0.086027,-0.134651 -0.086027,-0.344109 0,-0.213198 0.1122096,-0.388993 0.1159499,-0.179536 0.3478497,-0.284265 0.2356402,-0.108469 0.5947109,-0.108469 0.2356402,0 0.46754,0.05984 0.2318998,0.05985 0.4039546,0.172055 l -0.1533532,0.377777 q -0.175795,-0.104729 -0.362811,-0.153353 -0.187016,-0.05236 -0.3590707,-0.05236 -0.2019773,0 -0.3291482,0.04862 -0.1234305,0.04862 -0.1832756,0.127171 -0.056105,0.07855 -0.056105,0.179535 0,0.11969 0.082287,0.194497 0.086027,0.07107 0.2206789,0.112209 0.1383918,0.04114 0.3067062,0.08229 0.1683144,0.0374 0.3328885,0.08603 0.1683144,0.04862 0.3029659,0.127171 0.1383918,0.07855 0.2206789,0.213198 0.086027,0.134651 0.086027,0.340369 0,0.209458 -0.1159499,0.388993 -0.1122096,0.175795 -0.3478497,0.284264 -0.2356402,0.104729 -0.5947107,0.104729 z"
           id="path2936" /><path
           d="m 8.0777104,21.62351 q -0.3067063,0 -0.5872303,-0.08603 -0.280524,-0.08977 -0.445098,-0.228159 l 0.1683144,-0.377773 q 0.1570934,0.123431 0.3889932,0.205718 0.2318999,0.08229 0.4750207,0.08229 0.2057176,0 0.3328884,-0.04488 0.1271709,-0.04488 0.187016,-0.11969 0.059845,-0.07855 0.059845,-0.175795 0,-0.11969 -0.086027,-0.190757 -0.086027,-0.07481 -0.2244192,-0.115949 -0.1346515,-0.04488 -0.3029659,-0.08229 -0.1645741,-0.0374 -0.3328885,-0.08603 -0.1645741,-0.05236 -0.3029659,-0.130911 -0.1346515,-0.08229 -0.2206789,-0.216939 -0.086027,-0.134651 -0.086027,-0.344109 0,-0.213198 0.1122096,-0.388993 0.1159499,-0.179536 0.3478497,-0.284265 0.2356402,-0.108469 0.5947109,-0.108469 0.2356401,0 0.46754,0.05984 0.2318998,0.05985 0.4039545,0.172055 L 8.874399,19.540146 q -0.175795,-0.104729 -0.362811,-0.153353 -0.187016,-0.05236 -0.3590707,-0.05236 -0.2019773,0 -0.3291482,0.04862 -0.1234305,0.04862 -0.1832757,0.127171 -0.056105,0.07855 -0.056105,0.179535 0,0.11969 0.082287,0.194497 0.086027,0.07107 0.2206788,0.112209 0.1383919,0.04114 0.3067063,0.08229 0.1683144,0.0374 0.3328885,0.08603 0.1683144,0.04862 0.3029659,0.127171 0.1383918,0.07855 0.2206789,0.213198 0.086027,0.134651 0.086027,0.340369 0,0.209458 -0.1159499,0.388993 -0.1122096,0.175795 -0.3478498,0.284264 -0.2356401,0.104729 -0.5947108,0.104729 z"
           id="path2938" /><path
           d="m 9.2694842,21.586107 v -2.618224 h 0.4862416 v 2.618224 z"
           id="path2940" /><path
           d="m 10.014343,21.586107 v -2.618224 h 0.400214 l 1.144539,1.911304 h -0.209458 l 1.125836,-1.911304 h 0.400214 l 0.0037,2.618224 h -0.46006 l -0.0037,-1.896342 h 0.09725 l -0.957523,1.597117 h -0.216938 l -0.972484,-1.597117 h 0.11221 v 1.896342 z"
           id="path2942" /><path
           d="m 13.155923,21.586107 v -2.618224 h 0.486241 v 2.618224 z"
           id="path2944" /><path
           d="m 13.918575,21.586107 v -2.618224 h 0.486242 v 2.206789 h 1.368957 v 0.411435 z"
           id="path2946" /><path
           d="m 15.927442,21.586107 1.178201,-2.618224 h 0.478761 l 1.181941,2.618224 h -0.508684 l -1.013627,-2.360142 h 0.194497 l -1.009886,2.360142 z m 0.542346,-0.605932 0.130911,-0.381512 h 1.413841 l 0.130912,0.381512 z"
           id="path2948" /><path
           d="m 18.947552,21.586107 v -2.206789 h -0.867754 v -0.411435 h 2.22175 v 0.411435 h -0.867754 v 2.206789 z"
           id="path2950" /><path
           d="m 20.511101,21.586107 v -2.618224 h 0.486242 v 2.618224 z"
           id="path2952" /><path
           d="m 22.643972,21.62351 q -0.306707,0 -0.564789,-0.100988 -0.258082,-0.100989 -0.448838,-0.280524 -0.190756,-0.183276 -0.295485,-0.426397 -0.104729,-0.246861 -0.104729,-0.538606 0,-0.291745 0.104729,-0.534865 0.104729,-0.246862 0.295485,-0.426397 0.190756,-0.183276 0.448838,-0.284264 0.258082,-0.100989 0.561048,-0.100989 0.306707,0 0.561048,0.100989 0.258082,0.100988 0.448839,0.284264 0.190756,0.179535 0.295485,0.426397 0.104729,0.24312 0.104729,0.534865 0,0.291745 -0.104729,0.538606 -0.104729,0.246861 -0.295485,0.426397 -0.190757,0.179535 -0.448839,0.280524 -0.254341,0.100988 -0.557307,0.100988 z m -0.0037,-0.426396 q 0.198237,0 0.366552,-0.06733 0.168314,-0.06733 0.291745,-0.190756 0.12343,-0.127171 0.190756,-0.291745 0.07107,-0.168314 0.07107,-0.370292 0,-0.201977 -0.07107,-0.366551 -0.06733,-0.168314 -0.190756,-0.291745 -0.123431,-0.127171 -0.291745,-0.194497 -0.168315,-0.06733 -0.366552,-0.06733 -0.198237,0 -0.366551,0.06733 -0.164574,0.06733 -0.291745,0.194497 -0.123431,0.123431 -0.194497,0.291745 -0.06733,0.164574 -0.06733,0.366551 0,0.198237 0.06733,0.366552 0.07107,0.168314 0.194497,0.295485 0.123431,0.12343 0.291745,0.190756 0.168314,0.06733 0.366551,0.06733 z"
           id="path2954" /><path
           d="m 24.279591,21.586107 v -2.618224 h 0.400214 l 1.642001,2.016033 h -0.198237 v -2.016033 h 0.482501 v 2.618224 h -0.400214 l -1.642001,-2.016032 h 0.198237 v 2.016032 z"
           id="path2956" /></g><path
         style="fill:#222222;fill-opacity:1;stroke-width:0.0211848"
         d="M 11.715878,17.436949 C 10.511963,17.297269 9.0415411,16.966866 8.7010488,16.759566 l -0.070261,-0.04276 0.00793,-1.720835 0.00804,-1.720718 0.055369,-0.211861 c 0.2469314,-0.944608 0.7732234,-1.681322 1.5433252,-2.160291 0.335928,-0.208981 0.659006,-0.351063 0.940767,-0.413877 0.06504,-0.01512 0.129714,-0.03178 0.193967,-0.04996 0.619147,-0.141292 0.634865,0.336911 1.833014,0.337021 1.329661,1.2e-4 1.081371,-0.463947 1.955759,-0.317691 0.118628,0.01984 0.248012,0.06355 0.29221,0.07471 0.101608,0.02569 0.474407,0.184238 0.544668,0.231678 0.02905,0.01958 0.114939,0.0723 0.190604,0.116982 0.244529,0.144363 0.42913,0.294853 0.677982,0.552594 0.26759,0.277199 0.405949,0.4654 0.567365,0.770823 0.216309,0.409791 0.342055,0.8167 0.385173,1.24691 0.03219,0.321396 0.02642,3.059866 -0.0067,3.169641 -0.09128,0.302659 -1.158995,0.640749 -2.575851,0.815501 -0.320315,0.03965 -0.462636,0.04288 -1.768999,0.04083 -1.238864,-0.0018 -1.463937,-0.0071 -1.75951,-0.04132 z m 6.491933,-2.451065 c -0.0017,-0.963346 -0.03326,-1.891863 -0.07062,-2.07382 -0.07807,-0.380005 -0.309266,-0.914224 -0.546348,-1.262524 -0.169227,-0.248613 -0.556559,-0.64063 -0.835078,-0.845165 -0.356328,-0.468437 -1.203039,-0.673295 -1.371189,-0.778882 0,-0.0298 -0.03877,-0.106973 0.130283,-0.244275 0.161179,-0.163941 0.343255,-0.37292 0.404628,-0.464319 0.109534,-0.1631 0.382888,-0.6982797 0.382888,-0.7495638 0,-0.014411 0.0234,-0.031947 0.05202,-0.039153 0.02871,-0.0072 0.729544,0.3549222 1.561177,0.2938263 0.688392,0.025132 1.050131,-0.1316372 1.575197,-0.2884063 l 0.298336,0.020929 c 0.330884,0.096563 0.548751,0.2524258 0.813099,0.4012342 0.405227,0.2278354 0.838439,0.6204514 1.117199,1.0124684 0.243809,0.3430122 0.462394,0.8306322 0.570849,1.2742922 0.03195,0.130914 0.03686,0.334608 0.04384,1.825448 0.0068,1.45685 0.0038,1.686247 -0.02368,1.739094 -0.07351,0.142201 -0.576015,0.371119 -1.126207,0.512839 -0.699842,0.180515 -1.929096,0.33797 -2.641548,0.338451 L 18.209011,15.6586 Z M 7.2670175,15.550009 C 5.8052426,15.425944 4.4878315,15.089773 4.1953806,14.766217 l -0.074225,-0.08227 v -1.59413 c 0,-1.331104 0.00553,-1.627399 0.03267,-1.795303 0.088397,-0.547432 0.3561061,-1.142541 0.705006,-1.567706 C 5.3827213,9.08858 5.9394237,8.6573274 6.7420726,8.477533 7.1909697,8.3958181 7.7413819,8.7139577 8.5851889,8.7261863 9.099137,8.7336345 9.613085,8.5686951 10.127033,8.4450665 l 0.04684,0.095362 c 0.02558,0.052484 0.08516,0.177993 0.132114,0.2789997 0.140882,0.3030208 0.322957,0.5521138 0.641231,0.8775938 0.275224,0.2825508 0.197994,0.320835 0.134743,0.325343 -0.201064,0.04407 -0.426537,0.129313 -0.608594,0.203545 -0.197732,0.106745 -0.443111,0.252186 -0.7014528,0.429861 -0.5837784,0.429661 -1.0694232,1.033641 -1.3176765,1.719069 -0.1311525,0.361991 -0.1605778,0.55644 -0.1811155,1.196948 -0.012079,0.432431 -0.018724,0.864997 -0.019936,1.297595 l -9.639e-4,0.704406 -0.386732,-0.0028 c -0.2125829,-0.0016 -0.4818539,-0.01106 -0.598354,-0.02091 z M 12.86058,10.084596 c -0.07508,-0.01132 -0.14937,-0.02737 -0.222432,-0.04803 -0.05285,-0.01634 -0.150608,-0.04083 -0.217385,-0.05454 -0.06666,-0.01382 -0.164902,-0.04817 -0.218227,-0.07662 -0.05333,-0.02835 -0.105812,-0.05152 -0.116741,-0.05152 -0.02461,0 -0.190004,-0.09848 -0.415557,-0.247413 C 11.421625,9.442409 11.105514,9.099994 10.932805,8.8079032 10.800932,8.5845116 10.700045,8.3352977 10.629906,8.0589405 c -0.05477,-0.2155853 -0.05789,-0.253898 -0.05682,-0.6941961 0.0013,-0.4350136 0.005,-0.479932 0.05705,-0.6725775 0.12887,-0.4771698 0.357186,-0.8695465 0.713172,-1.2254119 0.250174,-0.2502951 0.394539,-0.3552653 0.696598,-0.5063549 0.249093,-0.1246671 0.460475,-0.1972094 0.714013,-0.2450105 0.271554,-0.051284 0.936445,-0.031947 1.196588,0.03483 0.503232,0.128991 0.942327,0.3862518 1.304079,0.7639759 0.32908,0.3434949 0.518485,0.6887913 0.649518,1.1831359 0.08528,0.3218764 0.106531,0.8254688 0.04948,1.1671621 -0.0771,0.4609558 -0.320075,0.9807627 -0.613487,1.3129675 -0.1398,0.158176 -0.436094,0.425646 -0.517644,0.467202 -0.03074,0.01573 -0.108453,0.06366 -0.172469,0.10641 -0.148686,0.0992 -0.310466,0.169585 -0.497826,0.216546 -0.08168,0.02041 -0.196009,0.05068 -0.254259,0.06714 -0.254498,0.07194 -0.729026,0.09464 -1.03733,0.04985 z M 17.446358,8.2298456 C 17.190899,8.204864 16.72146,8.1153066 16.605635,8.0002084 16.522611,7.8759944 16.550199,7.7281109 16.548085,7.5845552 16.528183,7.343351 16.523778,7.0810524 16.454441,6.7705103 16.393669,6.3944092 16.227737,6.0732807 16.049422,5.7359352 15.890887,5.4855956 15.727673,5.2572798 15.530104,5.092138 L 15.335694,4.9104975 15.170322,4.7705358 c -0.08691,-0.073555 0.0546,-0.2378217 0.150085,-0.4399553 0.154573,-0.3266803 0.524251,-0.7696205 0.835557,-1.0012994 0.324158,-0.2411672 0.721699,-0.4077503 1.1405,-0.4777703 0.322837,-0.054046 0.886001,-0.034832 1.171727,0.039634 0.254979,0.066657 0.574931,0.2016532 0.757489,0.3197145 0.191444,0.1238263 0.501912,0.3879332 0.623936,0.5308557 0.674859,0.7897982 0.837719,1.9351015 0.415077,2.9167043 -0.12647,0.2936521 -0.294494,0.5280934 -0.582381,0.8121374 -0.54803,0.5411846 -1.147705,0.7805501 -1.928856,0.7697408 -0.12803,-0.00181 -0.266268,-0.00648 -0.307103,-0.010447 z M 8.2444169,8.1358048 C 7.9130522,8.0874032 7.5474582,7.9539686 7.2482813,7.7720124 6.5943199,7.3744711 6.1309625,6.6833978 5.9966871,5.9054899 5.9272674,5.5031444 5.9725445,4.9638815 6.1113854,4.539437 6.3742914,3.7360672 7.0199585,3.0889139 7.8501113,2.848948 8.031467,2.8131194 8.3224732,2.7781255 8.6737854,2.7781255 c 0.5664063,0 0.3614387,0.00194 0.7569276,0.070823 0.2492138,0.072182 0.5409068,0.1761085 0.74292,0.3013762 0.219789,0.136317 0.613006,0.5204066 0.757971,0.7405557 0.224233,0.3400121 0.497812,0.664089 0.392377,0.8432685 l -0.115752,0.089273 -0.272723,0.2132272 c -0.272864,0.3408162 -0.61882,0.7548698 -0.740029,1.2005278 -0.149438,0.4525109 -0.2281811,0.9543773 -0.1986362,1.409808 l 0.012731,0.1975698 -0.1531357,0.070261 C 9.6358394,8.0162201 9.4026449,8.0875963 9.1630823,8.1270374 8.9460561,8.1613864 8.4523121,8.1661904 8.2444137,8.1358074 Z"
         id="path2959"
         sodipodi:nodetypes="cccccccccsscccccccccccccsccccsccccccccccccccccscccsccccccccccccccccccscccccccccccccccccccsccccccscccccccccsscccccscccsccccccccc" /></g></g></svg>
